<svg width="50" height="50" stroke="#000" xmlns="http://www.w3.org/2000/svg">
  <!--MIT License-->
<path d="M48.705 35.722c-15.5 2-31 2-47.477 0m23.816-34.71v48.244m23.584-35.052c-15.5-2-31-2-47.478 0" fill="none" stroke-width="1.8677041"/>
<path d="M14.36 48.86c-2-15.5-2.2-31 0-47.477M35.728 48.86c2-15.5 2.2-31 0-47.477m13.372 23.583H.83" fill="none" stroke-width="1.8677041"/>
<path d="M3.042 3.042c8-3 38.5-2.5 43.889 0 3.1 8 2.6 38.5 0 43.86-8 3.1-38.5 2.572-43.89 0-3-8-2.5-38.5 0-43.86z" fill="none" stroke-width="1.8677041"/>
</svg>