<!-- Generated by IcoMoon.io -->
<svg version="1.1" xmlns="http://www.w3.org/2000/svg" width="32" height="32" viewBox="0 0 32 32">
<title>ba-icon</title>
<path d="M1.356 5.763h3.322l3.932-4.678 2.847 3.593 1.424-1.085c5.301-0.008 0.040-0.012 6.724 0.020l2.768 2.895 0.068 3.661 2.102 2.576 5.763 4.407v2.373c-2.334 1.379-2.739 1.692-6.915 4.271l2.441 5.695-5.017-2.102c-6.088 2.548 0.002 0.043-7.051 2.915l-3.322-1.627-1.831 3.051-3.797-3.254 2.644-1.085-0.271-6.034 3.119-2.237v-3.254l-2.305-1.492c-0.274-1.634-0.484-2.211-0.881-4.136l-3.254-1.831-1.83 1.831z"></path>
</svg>
