<svg xmlns="http://www.w3.org/2000/svg" width="16" height="16" fill="currentColor"><path d="M8.5 11.5a.5.5 0 0 1-1 0V7.707L6.354 8.854a.5.5 0 1 1-.708-.708l2-2a.5.5 0 0 1 .708 0l2 2a.5.5 0 0 1-.708.708L8.5 7.707z"/><path fill="#1a1a1a" d="m13.688 13.904-.024-9.824L9.919.336 4.048.312a1.66 1.66 0 0 0-1.664 1.664l.072 11.808c.006.919.745 1.65 1.664 1.664l7.904.12c.919.014 1.667-.745 1.664-1.664M9.919 2.832a1.25 1.25 0 0 0 1.248 1.248h1.664l.024 9.824a.827.827 0 0 1-.832.832l-7.904-.12a.84.84 0 0 1-.832-.832L3.216 1.976c-.003-.46.381-.922.832-.832l5.872.024z"/><path fill-rule="evenodd" d="m2.565 14.274.863 1.079 9.061.096.839-.887.144-10.259L9.468.587 3.691.54l-1.127.959z" opacity=".2"/></svg>
