<!-- Generated by IcoMoon.io --><!-- MIT License -->
<svg version="1.1" xmlns="http://www.w3.org/2000/svg" width="16" height="16" viewBox="0 0 16 16">
<title>measure</title>
<path fill="#099ddc" opacity="0.2" d="M1.078 11.593l1.487-1.178 9.971-9.66 3.020 2.757-11.415 10.949z"></path>
<path fill="#099dda" d="M12.424 0.039l-11.699 11.501 3.509 3.464 11.71-11.47zM4.224 14.204l-2.675-2.643 0.885-0.874 0.714 0.688 0.34-0.331-0.714-0.688 0.936-0.927 0.66 0.638 0.34-0.331-0.66-0.638 0.813-0.779 1.776 1.742 0.442-0.437-1.776-1.742 0.648-0.65 0.66 0.638 0.34-0.331-0.66-0.638 0.968-0.938 0.618 0.618 0.34-0.331-0.618-0.618 0.885-0.874 1.776 1.742 0.411-0.426-1.776-1.742 1.102-1.056 0.606 0.587 0.34-0.331-0.606-0.587 0.988-0.98 0.583 0.525 0.308-0.319-0.552-0.537 0.751-0.756 2.675 2.643z"></path>
</svg>