<svg xmlns="http://www.w3.org/2000/svg" width="16" height="16" fill="currentColor"><path d="M12.641 8.078a.602.602 0 1 0 0-1.203.602.602 0 0 0 0 1.203M5 1a2 2 0 0 0-2 2v2H2a2 2 0 0 0-2 2v3a2 2 0 0 0 2 2h1v1a2 2 0 0 0 2 2h6a2 2 0 0 0 2-2v-1h1a2 2 0 0 0 2-2V7a2 2 0 0 0-2-2h-1V3a2 2 0 0 0-2-2zM4 3a1 1 0 0 1 1-1h6a1 1 0 0 1 1 1v2H4zm.983 6.257C3.878 9.257 3 9.83 3 10.935V11H2a1 1 0 0 1-1-1V7a1 1 0 0 1 1-1h12a1 1 0 0 1 1 1v3a1 1 0 0 1-1 1h-1v-.065c0-1.105-.912-1.678-2.017-1.678zM12 10.935V13a1 1 0 0 1-1 1H5a1 1 0 0 1-1-1v-2.065c0-.552.431-.678.983-.678h6c.552 0 1.017.126 1.017.678"/><path fill-rule="evenodd" d="m3.338 11.48-1.846-.048-1.007-1.198.024-3.452L1.588 5.56l12.704.024 1.222 1.27v4.17l-1.151.48-1.774.072-.336 2.205-1.294.863-6.616-.336-.839-.695z" opacity=".2"/></svg>
