<svg xmlns="http://www.w3.org/2000/svg" width="16" height="16" fill="currentColor" viewBox="0 0 16 16"> <!-- MIT License -->
  <path d="M14 4.5V14a2 2 0 0 1-2 2H4a2 2 0 0 1-2-2V2a2 2 0 0 1 2-2h5.5L14 4.5zm-3 0A1.5 1.5 0 0 1 9.5 3V1H4a1 1 0 0 0-1 1v12a1 1 0 0 0 1 1h8a1 1 0 0 0 1-1V4.5h-2z"/>
  <g>
    <path d="m 3.4657841,7.2965239 h 1.3666812 q 0.6095526,0 0.9346473,0.2716252 0.3272335,0.2694865 0.3272335,0.7699612 0,0.5026136 -0.3272335,0.7742388 Q 5.4420179,9.3818355 4.8324653,9.3818355 H 4.2892149 V 10.489724 H 3.4657841 Z m 0.8234308,0.59672 v 0.8918717 h 0.4555604 q 0.2395434,0 0.3700091,-0.1154942 Q 5.24525,8.5519885 5.24525,8.3381103 5.24525,8.1242322 5.1147844,8.0087381 4.9843187,7.8932439 4.7447753,7.8932439 Z" />
    <path d="m 7.4995253,7.9189092 v 1.9484297 h 0.2951518 q 0.5047524,0 0.7699612,-0.2502374 0.2673477,-0.2502374 0.2673477,-0.7271856 0,-0.4748094 -0.2652089,-0.722908 -0.2652088,-0.2480987 -0.7721,-0.2480987 z M 6.6760946,7.2965239 h 0.8683451 q 0.7271856,0 1.0822233,0.1048003 0.3571764,0.1026615 0.6116914,0.3507601 0.224572,0.2160169 0.3336498,0.498336 0.1090779,0.2823191 0.1090779,0.6394956 0,0.361454 -0.1090779,0.6459119 -0.1090778,0.2823191 -0.3336498,0.4983362 -0.2566537,0.248098 -0.615969,0.352899 -0.3593152,0.102661 -1.0779457,0.102661 H 6.6760946 Z" />
    <path d="m 10.312022,7.2965239 h 2.222194 v 0.6223853 h -1.398763 v 0.5945812 h 1.31535 v 0.6223853 h -1.31535 v 1.3538483 h -0.823431 z" />
  </g>
</svg>
