<!--Generated by IcoMoon.io--><!--MIT License--><svg xmlns="http://www.w3.org/2000/svg" width="1024" height="1024"><path fill="#099ddc" d="m42.528 970.033 121.545-306.429L803.941 58.267l193.801 172.765-636.79 612.854z" opacity=".2"/><path fill="#099dda" d="M790.888 31.644c-6.406 0-12.219 2.478-16.38 6.579l-619.52 610.562c-2.213 2.228-4.02 4.699-5.181 7.56L26.042 961.414c-1.096 2.61-1.68 5.625-1.68 8.541 0 12.384 10.164 22.401 22.962 22.401 3.068 0 5.968-.537 8.4-1.539l.141-.145 308.291-121.38a7.824 7.824 0 0 1 1.624-.821l.056-.019a23.291 23.291 0 0 0 7.56-4.899v.145l619.661-610.563c4.199-4.137 6.579-9.608 6.579-15.822s-2.431-11.869-6.579-15.96L807.129 38.227c-4.212-4.15-9.833-6.579-16.242-6.579zm-.556 57.543a8.054 8.054 0 0 1 6.299 2.378l.001.001L938.598 231.57a8.053 8.053 0 0 1 2.322 5.671c0 2.28-.945 4.341-2.464 5.808l-.002.002-80.082 78.822c-1.451 1.396-3.425 2.254-5.601 2.254s-4.15-.861-5.603-2.257l.002.002-142.101-139.866c-1.477-1.466-2.393-3.496-2.393-5.739s.916-4.276 2.393-5.738l.001-.001 80.223-78.963a8.054 8.054 0 0 1 5.01-2.377l.03-.002zM666.285 211.269a8.048 8.048 0 0 1 6.159 2.378l.001.001 142.104 140.004c1.477 1.466 2.393 3.496 2.393 5.739s-.916 4.276-2.393 5.738l-.001.001-402.654 396.773a8.047 8.047 0 0 1-5.594 2.379h-18.249a8.076 8.076 0 0 1-8.077-8.077v-.043.002-30.522c0-12.428-10.023-22.401-22.821-22.401h-31.121a8.076 8.076 0 0 1-8.077-8.077v-.043.002-30.522c0-12.428-10.023-22.401-22.821-22.401h-30.983a8.076 8.076 0 0 1-8.077-8.077v-.043.002-17.922a8.045 8.045 0 0 1 2.516-5.735l.004-.004 402.653-396.773a8.054 8.054 0 0 1 5.01-2.377l.03-.002zM204.27 667.125a8.08 8.08 0 0 1 7.118 4.434l.022.045.141.279c.085.177.179.408.264.646l.019.056c3.275 8.431 11.396 14.421 21.282 14.421h31.121a8.076 8.076 0 0 1 8.077 8.077v.041-.002 30.522c0 12.428 10.023 22.401 22.821 22.401h30.983a8.076 8.076 0 0 1 8.077 8.077v.043-.002 30.522c0 9.557 5.974 17.663 14.841 21 3.123 1.166 5.308 4.121 5.308 7.589a8.05 8.05 0 0 1-2.367 5.713l-6.579 6.579a8.088 8.088 0 0 1-2.744 1.801l-.055.02-236.747 93.243a7.954 7.954 0 0 1-2.901.539 8.076 8.076 0 0 1-8.077-8.077c0-1.118.227-2.185.637-3.152l-.021.052 94.644-233.247a8.118 8.118 0 0 1 1.684-2.665l6.575-6.575a8.056 8.056 0 0 1 5.888-2.379h-.008z"/></svg>
