<!-- Generated by IcoMoon.io --><!-- MIT License -->
<svg version="1.1" xmlns="http://www.w3.org/2000/svg" width="1024" height="1024" viewBox="0 0 1024 1024">
<title></title>
<g id="icomoon-ignore">
</g>
<path fill="#444" d="M826.712 103.863c-47.403 0-85.831 39.157-85.831 87.459s38.428 87.459 85.831 87.459v0c47.403 0 85.831-39.157 85.831-87.459s-38.428-87.459-85.831-87.459v0zM683.66 191.322c0-0.005 0-0.012 0-0.018 0-80.504 64.046-145.765 143.051-145.765s143.051 65.261 143.051 145.765c0 80.504-64.046 145.765-143.051 145.765-43.329 0-82.158-19.629-108.391-50.636l-0.156-0.189-384.407 181.914c4.204 13.105 6.628 28.187 6.628 43.846s-2.424 30.741-6.911 44.877l0.283-1.031 384.407 181.914c26.387-31.14 65.182-50.73 108.468-50.73 79.005 0 143.051 65.261 143.051 145.765s-64.046 145.765-143.051 145.765c-79.005 0-143.051-65.261-143.051-145.765 0-15.7 2.436-30.82 6.944-44.99l-0.284 1.031-384.407-181.914c-26.39 31.206-65.226 50.843-108.562 50.843-79.005 0-143.051-65.261-143.051-145.765s64.046-145.765 143.051-145.765c43.337 0 82.172 19.636 108.406 50.653l0.157 0.19 384.407-181.914c-4.174-13.064-6.58-28.096-6.58-43.701 0-0.051 0-0.102 0-0.152v0.008zM197.287 424.546c-47.403 0-85.831 39.157-85.831 87.459s38.428 87.459 85.831 87.459v0c47.403 0 85.831-39.157 85.831-87.459s-38.428-87.459-85.831-87.459v0zM826.712 745.228c-0.010 0-0.021 0-0.033 0-47.403 0-85.831 39.157-85.831 87.459s38.428 87.459 85.831 87.459c0.012 0 0.023 0 0.035 0h-0.002c47.389-0.019 85.798-39.168 85.798-87.459s-38.409-87.44-85.796-87.459h-0.002z"></path>
<path fill="#099ddc" opacity="0.2" stroke="#099dda" stroke-linejoin="round" stroke-linecap="square" stroke-miterlimit="4" stroke-width="146.8237" d="M253.097 516.339c0 28.862-23.954 52.259-53.503 52.259s-53.503-23.397-53.503-52.259c0-28.862 23.954-52.259 53.503-52.259s53.503 23.397 53.503 52.259z"></path>
<path fill="#099ddc" opacity="0.2" stroke="#099dda" stroke-linejoin="round" stroke-linecap="square" stroke-miterlimit="4" stroke-width="146.8237" d="M874.656 832c0 28.862-23.954 52.259-53.503 52.259s-53.503-23.397-53.503-52.259c0-28.862 23.954-52.259 53.503-52.259s53.503 23.397 53.503 52.259z"></path>
<path fill="#099ddc" opacity="0.2" stroke="#099dda" stroke-linejoin="round" stroke-linecap="square" stroke-miterlimit="4" stroke-width="146.8237" d="M883.334 186.576c0 28.862-23.954 52.259-53.503 52.259s-53.503-23.397-53.503-52.259c0-28.862 23.954-52.259 53.503-52.259s53.503 23.397 53.503 52.259z"></path>
</svg>