<!--Generated by IcoMoon.io--><!--MIT License--><svg xmlns="http://www.w3.org/2000/svg" width="1024" height="1024"><path fill="#444" d="M826.712 103.863c-47.403 0-85.831 39.157-85.831 87.459s38.428 87.459 85.831 87.459c47.403 0 85.831-39.157 85.831-87.459s-38.428-87.459-85.831-87.459zM683.66 191.322v-.018c0-80.504 64.046-145.765 143.051-145.765S969.762 110.8 969.762 191.304c0 80.504-64.046 145.765-143.051 145.765-43.329 0-82.158-19.629-108.391-50.636l-.156-.189-384.407 181.914c4.204 13.105 6.628 28.187 6.628 43.846s-2.424 30.741-6.911 44.877l.283-1.031 384.407 181.914c26.387-31.14 65.182-50.73 108.468-50.73 79.005 0 143.051 65.261 143.051 145.765s-64.046 145.765-143.051 145.765c-79.005 0-143.051-65.261-143.051-145.765 0-15.7 2.436-30.82 6.944-44.99l-.284 1.031-384.407-181.914c-26.39 31.206-65.226 50.843-108.562 50.843-79.005 0-143.051-65.261-143.051-145.765s64.046-145.765 143.051-145.765c43.337 0 82.172 19.636 108.406 50.653l.157.19 384.407-181.914c-4.174-13.064-6.58-28.096-6.58-43.701v-.152.008zM197.287 424.546c-47.403 0-85.831 39.157-85.831 87.459s38.428 87.459 85.831 87.459c47.403 0 85.831-39.157 85.831-87.459s-38.428-87.459-85.831-87.459zm629.425 320.682h-.033c-47.403 0-85.831 39.157-85.831 87.459s38.428 87.459 85.831 87.459h.035-.002c47.389-.019 85.798-39.168 85.798-87.459s-38.409-87.44-85.796-87.459h-.002z"/><path fill="#099ddc" stroke="#099dda" stroke-linecap="square" stroke-linejoin="round" stroke-width="146.824" d="M253.097 516.339c0 28.862-23.954 52.259-53.503 52.259s-53.503-23.397-53.503-52.259c0-28.862 23.954-52.259 53.503-52.259s53.503 23.397 53.503 52.259zM874.656 832c0 28.862-23.954 52.259-53.503 52.259S767.65 860.862 767.65 832c0-28.862 23.954-52.259 53.503-52.259s53.503 23.397 53.503 52.259zm8.678-645.424c0 28.862-23.954 52.259-53.503 52.259s-53.503-23.397-53.503-52.259c0-28.862 23.954-52.259 53.503-52.259s53.503 23.397 53.503 52.259z" opacity=".2"/></svg>
