<?xml version="1.0" encoding="UTF-8" standalone="no"?><!-- MIT License -->
<svg
   xmlns:dc="http://purl.org/dc/elements/1.1/"
   xmlns:cc="http://creativecommons.org/ns#"
   xmlns:rdf="http://www.w3.org/1999/02/22-rdf-syntax-ns#"
   xmlns:svg="http://www.w3.org/2000/svg"
   xmlns="http://www.w3.org/2000/svg"
   id="svg1570"
   version="1.1"
   viewBox="0 0 16 16"
   class="bi bi-tools"
   fill="currentColor"
   height="16"
   width="16">
  <metadata
     id="metadata1576">
    <rdf:RDF>
      <cc:Work
         rdf:about="">
        <dc:format>image/svg+xml</dc:format>
        <dc:type
           rdf:resource="http://purl.org/dc/dcmitype/StillImage" />
        <dc:title></dc:title>
      </cc:Work>
    </rdf:RDF>
  </metadata>
  <defs
     id="defs1574" />
  <path
     style="stroke-width:0.63755673"
     id="path1568"
     d="M 3.5526492,2.9149306 2.9150924,3.5524874 4.3177173,5.5167997 A 0.63755674,0.63755674 0 0 0 4.837326,5.783936 H 4.881955 A 0.63755674,0.63755674 0 0 1 5.3333451,5.9707401 L 7.0388094,7.6762044 5.3703234,9.36828 A 1.9145829,1.9145829 0 0 0 2.9150924,11.203168 1.9126702,1.9126702 0 1 0 6.662651,10.660607 L 8.3547265,8.9921215 8.9718815,9.6092764 8.7774267,10.192003 a 0.63755674,0.63755674 0 0 0 0.1542887,0.652221 l 2.1396406,2.13964 a 0.63755674,0.63755674 0 0 0 0.901505,0 l 1.011165,-1.011165 a 0.63755674,0.63755674 0 0 0 0,-0.901505 L 10.844386,8.9315536 A 0.63755674,0.63755674 0 0 0 10.192165,8.7772649 L 9.6094382,8.9717197 8.9973837,8.3596652 10.706036,6.6746027 A 1.915858,1.915858 0 0 0 13.116,4.8276008 c 0,-0.1715027 -0.02231,-0.337905 -0.06503,-0.4953815 L 11.686598,5.6972282 10.565773,5.4651576 10.333703,4.3449704 11.698712,2.9799614 A 1.9126702,1.9126702 0 0 0 9.3556906,5.3261702 L 7.6725408,7.0335472 5.9709019,5.3331833 A 0.63755674,0.63755674 0 0 1 5.7840978,4.8824307 V 4.8371642 A 0.63755674,0.63755674 0 0 0 5.5169615,4.318193 Z m 6.1498723,6.7874291 a 0.31877837,0.31877837 0 0 1 0.4513905,0 l 1.91267,1.9126703 a 0.31918105,0.31918105 0 0 1 -0.45139,0.45139 L 9.7025215,10.15375 a 0.31877837,0.31877837 0 0 1 0,-0.4513903 z m -4.8747588,0.2256951 0.3002892,0.1542892 0.3372675,0.01658 0.1829788,0.283713 0.2837127,0.182979 0.016577,0.337267 0.1542887,0.300289 -0.1542887,0.300289 -0.016577,0.337268 -0.2837127,0.182979 -0.1829788,0.283713 -0.3372675,0.01658 L 4.8277627,12.478282 4.5274734,12.323993 4.1902059,12.307417 4.0072271,12.023704 3.7235144,11.840725 3.7069379,11.503457 3.5526492,11.203168 3.7069379,10.902879 3.7235144,10.565612 4.0072271,10.382633 4.1902059,10.09892 4.5274734,10.082344 Z" />
</svg>