<!--MIT License--><svg xmlns="http://www.w3.org/2000/svg" width="16" height="16" fill="currentColor" class="bi bi-tools"><path d="m3.553 2.915-.638.637 1.403 1.965a.64.64 0 0 0 .52.267h.044a.64.64 0 0 1 .451.187L7.04 7.676 5.37 9.368a1.915 1.915 0 0 0-2.455 1.835 1.913 1.913 0 1 0 3.748-.542l1.692-1.669.617.617-.195.583a.64.64 0 0 0 .155.652l2.14 2.14a.64.64 0 0 0 .9 0l1.012-1.011a.64.64 0 0 0 0-.902l-2.14-2.14a.64.64 0 0 0-.652-.154l-.583.195-.612-.612 1.709-1.685a1.916 1.916 0 0 0 2.41-1.847q0-.258-.065-.496l-1.364 1.365-1.121-.232-.232-1.12 1.365-1.365a1.913 1.913 0 0 0-2.343 2.346L7.673 7.034l-1.702-1.7a.64.64 0 0 1-.187-.452v-.045a.64.64 0 0 0-.267-.519Zm6.15 6.787a.32.32 0 0 1 .45 0l1.914 1.913a.32.32 0 0 1-.452.451l-1.912-1.912a.32.32 0 0 1 0-.452m-4.875.226.3.154.337.017.183.284.284.183.017.337.154.3-.154.3-.017.338-.284.183-.183.283-.337.017-.3.154-.3-.154-.338-.017-.183-.283-.283-.183-.017-.338-.154-.3.154-.3.017-.337.283-.183.183-.284.337-.017Z" style="stroke-width:.63755673"/></svg>
