<?xml version="1.0" encoding="UTF-8" standalone="no"?>
<svg
   xmlns:dc="http://purl.org/dc/elements/1.1/"
   xmlns:cc="http://creativecommons.org/ns#"
   xmlns:rdf="http://www.w3.org/1999/02/22-rdf-syntax-ns#"
   xmlns:svg="http://www.w3.org/2000/svg"
   xmlns="http://www.w3.org/2000/svg"
   id="svg850"
   version="1.1"
   viewBox="0 0 16 16"
   class="bi bi-card-checklist"
   fill="currentColor"
   height="16"
   width="16">
  <metadata
     id="metadata856">
    <rdf:RDF>
      <cc:Work
         rdf:about="">
        <dc:format>image/svg+xml</dc:format>
        <dc:type
           rdf:resource="http://purl.org/dc/dcmitype/StillImage" />
        <dc:title></dc:title>
      </cc:Work>
    </rdf:RDF>
  </metadata>
  <defs
     id="defs854" />
  <path
     style="stroke-width:0.59340703"
     id="path846"
     d="m 4.3855634,8.5050226 c -0.4915945,0 -0.8901105,0.3985161 -0.8901105,0.8901105 v 1.7802219 c 0,0.491594 0.398516,0.890109 0.8901105,0.890109 h 7.7142916 c 0.491594,0 0.890111,-0.398515 0.890111,-0.890109 V 9.3951331 c 0,-0.4915944 -0.398517,-0.8901105 -0.890111,-0.8901105 l -1.30891,0.00681 V 9.105244 l 1.30891,-0.00681 c 0.163863,-8.531e-4 0.296703,0.1328388 0.296703,0.2967034 v 1.7802216 c 0,0.163863 -0.132838,0.296703 -0.296703,0.296703 H 4.3855634 c -0.1638649,0 -0.2967035,-0.13284 -0.2967035,-0.296703 V 9.3951331 c 0,-0.1638646 0.1328386,-0.2967034 0.2967035,-0.2967034 H 7.6168199 V 8.5050226 Z" />
  <path
     style="stroke-width:0.52875465"
     id="path848"
     d="m 5.9892538,9.7356894 c 0.1035607,0.1033002 0.1035607,0.2710586 0,0.3743586 l -0.7931319,0.793131 c -0.103299,0.103566 -0.2710588,0.103566 -0.3743584,0 L 4.5573862,10.638802 C 4.3078141,10.38923 4.6821724,10.014872 4.9317445,10.264444 l 0.077198,0.07773 0.6059529,-0.6064816 c 0.103299,-0.1035607 0.2710587,-0.1035607 0.3743587,0 z" />
  <path
     style="stroke-width:0.59340703"
     id="path846-3"
     d="m 4.3774504,3.9501604 c -0.4915945,0 -0.8901105,0.3985161 -0.8901105,0.8901105 v 1.7802209 c 0,0.4915944 0.398516,0.8901105 0.8901105,0.8901105 H 6.3697681 L 6.926087,6.9171954 H 4.3774504 c -0.1638648,0 -0.2967035,-0.132839 -0.2967035,-0.2967036 V 4.8402709 c 0,-0.1638646 0.1328387,-0.2967036 0.2967035,-0.2967036 h 7.7142916 c 0.163865,0 0.296703,0.132839 0.296703,0.2967036 v 1.7802209 c 0,0.1638646 -0.132838,0.2967036 -0.296703,0.2967036 h -0.622813 l 0.556319,0.5934069 h 0.06649 c 0.491594,0 0.890111,-0.3985161 0.890111,-0.8901105 V 4.8402709 c 0,-0.4915944 -0.398517,-0.8901105 -0.890111,-0.8901105 z" />
  <path
     style="stroke-width:0.52875465"
     id="path848-5"
     d="m 5.9811666,5.1815183 c 0.1035607,0.103299 0.1035607,0.2710588 0,0.3743585 L 5.1880345,6.3490085 c -0.103299,0.1035607 -0.2710587,0.1035607 -0.3743583,0 L 4.5492989,6.0846315 C 4.2997268,5.8350587 4.6740851,5.4607008 4.9236571,5.710273 L 5.0008561,5.788 5.606809,5.1815185 c 0.103299,-0.1035607 0.2710586,-0.1035607 0.3743576,-2e-7 z" />
  <path
     style="stroke:none;stroke-width:0.27480727;stroke-opacity:1"
     id="path4763-9"
     d="m 8.9936491,5.6489361 c 0.1085919,-0.1159866 0.2926272,-0.1159866 0.4012191,0 l 1.7436528,1.8604457 c 0.164885,0.1753264 0.04013,0.4625005 -0.20061,0.4625005 h -0.781827 v 2.5321807 c 0,0.151771 -0.123036,0.274806 -0.2748073,0.274806 H 8.5072406 c -0.1517712,0 -0.274808,-0.123033 -0.274808,-0.274806 V 7.9718823 H 7.4503303 c -0.2401813,0 -0.3649429,-0.2871736 -0.200608,-0.4627753 z" />
</svg>
