<svg width="16" height="16" fill="currentColor" class="cluster" xmlns="http://www.w3.org/2000/svg"><path d="M8.246 5.229A2.608 2.437 0 005.64 7.666a2.608 2.437 0 00.074.576l-1.473.58a1.483 1.386 0 00-1.254-.646A1.483 1.386 0 001.502 9.56a1.483 1.386 0 001.484 1.386A1.483 1.386 0 004.47 9.561a1.483 1.386 0 00-.032-.278l1.454-.572a2.608 2.437 0 002.355 1.393 2.608 2.437 0 002.356-1.39l1.443.57a1.483 1.386 0 00-.031.277 1.483 1.386 0 001.482 1.386 1.483 1.386 0 001.484-1.386 1.483 1.386 0 00-1.484-1.385 1.483 1.386 0 00-1.254.648l-1.463-.576a2.608 2.437 0 010-.002 2.608 2.437 0 00.076-.58 2.608 2.437 0 00-2.609-2.437z" fill="#000"/><path d="M3.2 9.502l3.415-1.346M13.282 9.502L9.867 8.156" overflow="visible"/></svg>