


<svg xmlns="http://www.w3.org/2000/svg" width="16" height="16"   viewBox="0 0 16 16">
<path d="M8 5.515c-1.372 0-2.485 1.113-2.485 2.485s1.113 2.485 2.485 2.485v0c1.372 0 2.485-1.113 2.485-2.485s-1.113-2.485-2.485-2.485v0zM6.28 8c0-0.95 0.77-1.72 1.72-1.72s1.72 0.77 1.72 1.72v0c0 0.95-0.77 1.72-1.72 1.72s-1.72-0.77-1.72-1.72v0z"></path>
<path d="M9.375 2.903c-0.403-1.37-2.347-1.37-2.75 0l-0.072 0.244c-0.084 0.279-0.339 0.48-0.641 0.48-0.117 0-0.227-0.030-0.323-0.083l0.003 0.002-0.224-0.123c-1.256-0.683-2.628 0.691-1.945 1.945l0.122 0.224c0.051 0.092 0.082 0.202 0.082 0.32 0 0.302-0.2 0.557-0.475 0.64l-0.005 0.001-0.244 0.072c-1.37 0.403-1.37 2.347 0 2.75l0.244 0.072c0.279 0.084 0.48 0.339 0.48 0.641 0 0.117-0.030 0.227-0.083 0.323l0.002-0.003-0.123 0.224c-0.683 1.256 0.69 2.629 1.945 1.945l0.224-0.122c0.092-0.051 0.202-0.082 0.32-0.082 0.302 0 0.557 0.2 0.64 0.475l0.001 0.005 0.072 0.244c0.403 1.37 2.347 1.37 2.75 0l0.072-0.244c0.084-0.279 0.339-0.48 0.641-0.48 0.117 0 0.227 0.030 0.323 0.083l-0.003-0.002 0.224 0.123c1.256 0.684 2.629-0.691 1.945-1.945l-0.122-0.224c-0.051-0.092-0.082-0.203-0.082-0.32 0-0.302 0.2-0.557 0.475-0.64l0.005-0.001 0.244-0.072c1.37-0.403 1.37-2.347 0-2.75l-0.244-0.072c-0.279-0.084-0.48-0.339-0.48-0.641 0-0.117 0.030-0.227 0.083-0.323l-0.002 0.003 0.123-0.224c0.684-1.256-0.691-2.628-1.945-1.945l-0.224 0.122c-0.092 0.051-0.203 0.082-0.32 0.082-0.302 0-0.557-0.2-0.64-0.475l-0.001-0.005zM7.359 3.12c0.188-0.639 1.093-0.639 1.282 0l0.072 0.244c0.181 0.599 0.728 1.029 1.375 1.029 0.252 0 0.488-0.065 0.694-0.179l-0.007 0.004 0.223-0.122c0.585-0.318 1.225 0.322 0.906 0.907l-0.122 0.224c-0.11 0.198-0.174 0.434-0.174 0.686 0 0.648 0.429 1.195 1.019 1.373l0.010 0.003 0.243 0.072c0.639 0.188 0.639 1.093 0 1.282l-0.244 0.072c-0.599 0.181-1.029 0.728-1.029 1.375 0 0.252 0.065 0.488 0.179 0.694l-0.004-0.007 0.123 0.223c0.318 0.585-0.322 1.225-0.907 0.906l-0.223-0.122c-0.198-0.11-0.434-0.175-0.686-0.175-0.648 0-1.195 0.429-1.373 1.019l-0.003 0.010-0.072 0.243c-0.188 0.639-1.093 0.639-1.282 0l-0.072-0.244c-0.181-0.599-0.728-1.028-1.375-1.028-0.251 0-0.488 0.065-0.693 0.178l0.007-0.004-0.224 0.123c-0.585 0.318-1.225-0.322-0.907-0.907l0.122-0.223c0.11-0.198 0.175-0.435 0.175-0.687 0-0.648-0.429-1.195-1.019-1.373l-0.010-0.003-0.244-0.072c-0.639-0.188-0.639-1.093 0-1.282l0.244-0.072c0.599-0.181 1.028-0.728 1.028-1.375 0-0.251-0.065-0.487-0.178-0.692l0.004 0.007-0.122-0.224c-0.318-0.585 0.322-1.225 0.907-0.907l0.224 0.122c0.198 0.11 0.434 0.175 0.686 0.175 0.647 0 1.195-0.429 1.373-1.018l0.003-0.010z"></path>
</svg>