<svg xmlns="http://www.w3.org/2000/svg" width="16" height="16" fill="currentColor" class="bi bi-fullscreen"><path d="M4.49 3.41c-.594 0-1.08.486-1.08 1.08v2.16c0 .158.068.31.174.405a.546.546 0 0 0 .365.136.55.55 0 0 0 .367-.136.549.549 0 0 0 .174-.405V4.49h2.16c.158 0 .31-.067.405-.174a.55.55 0 0 0 .136-.367.546.546 0 0 0-.136-.365.549.549 0 0 0-.405-.174Zm4.86 0a.544.544 0 0 0-.54.537.544.544 0 0 0 .54.543h2.16v2.16c0 .158.067.31.174.405a.546.546 0 0 0 .365.136.55.55 0 0 0 .367-.136.549.549 0 0 0 .174-.405V4.49c0-.594-.486-1.08-1.08-1.08Zm-5.436 5.4a.544.544 0 0 0-.504.54v2.16c0 .594.486 1.08 1.08 1.08h2.16c.158 0 .31-.068.405-.174a.55.55 0 0 0 .136-.367.546.546 0 0 0-.136-.365.549.549 0 0 0-.405-.174H4.49V9.35a.544.544 0 0 0-.543-.54h-.029zm8.1 0a.544.544 0 0 0-.504.54v2.16H9.35a.549.549 0 0 0-.405.174.546.546 0 0 0-.136.365c0 .127.042.26.136.367a.549.549 0 0 0 .405.174h2.16c.594 0 1.08-.486 1.08-1.08V9.35a.544.544 0 0 0-.54-.54h-.032z" style="color:#000;font-style:normal;font-variant:normal;font-weight:400;font-stretch:normal;font-size:medium;line-height:normal;font-family:sans-serif;font-variant-ligatures:normal;font-variant-position:normal;font-variant-caps:normal;font-variant-numeric:normal;font-variant-alternates:normal;font-feature-settings:normal;text-indent:0;text-align:start;text-decoration:none;text-decoration-line:none;text-decoration-style:solid;text-decoration-color:#000;letter-spacing:normal;word-spacing:normal;text-transform:none;writing-mode:lr-tb;direction:ltr;text-orientation:mixed;dominant-baseline:auto;baseline-shift:baseline;text-anchor:start;white-space:normal;shape-padding:0;clip-rule:nonzero;display:inline;overflow:visible;visibility:visible;opacity:1;isolation:auto;mix-blend-mode:normal;color-interpolation:sRGB;color-interpolation-filters:linearRGB;solid-color:#000;solid-opacity:1;vector-effect:none;fill-opacity:1;fill-rule:nonzero;stroke:none;stroke-width:.54000002;stroke-linecap:butt;stroke-linejoin:miter;stroke-miterlimit:4;stroke-dasharray:none;stroke-dashoffset:0;stroke-opacity:1;color-rendering:auto;image-rendering:auto;shape-rendering:auto;text-rendering:auto;enable-background:accumulate"/></svg>
