<!--Generated by IcoMoon.io--><!--MIT License--><svg xmlns="http://www.w3.org/2000/svg" width="16" height="16"><path fill="#099ddc" d="m1.078 11.593 1.487-1.178 9.971-9.66 3.02 2.757L4.141 14.461z" opacity=".2"/><path fill="#099dda" d="M12.424.039.725 11.54l3.509 3.464 11.71-11.47zm-8.2 14.165-2.675-2.643.885-.874.714.688.34-.331-.714-.688.936-.927.66.638.34-.331-.66-.638.813-.779 1.776 1.742.442-.437-1.776-1.742.648-.65.66.638.34-.331-.66-.638.968-.938.618.618.34-.331-.618-.618.885-.874L10.262 6.5l.411-.426-1.776-1.742 1.102-1.056.606.587.34-.331-.606-.587.988-.98.583.525.308-.319-.552-.537.751-.756 2.675 2.643z"/></svg>
