<!-- Generated by IcoMoon.io --><!-- MIT License -->
<svg version="1.1" xmlns="http://www.w3.org/2000/svg" width="1024" height="1024" viewBox="0 0 1024 1024">
<title></title>
<g id="icomoon-ignore">
</g>
<path fill="#099ddc" opacity="0.2" d="M42.528 970.033l121.545-306.429 639.868-605.337 193.801 172.765-636.79 612.854z"></path>
<path fill="#099dda" d="M790.888 31.644c-6.406 0-12.219 2.478-16.38 6.579l-619.52 610.562c-2.213 2.228-4.020 4.699-5.181 7.56l-123.765 305.069c-1.096 2.61-1.68 5.625-1.68 8.541 0 12.384 10.164 22.401 22.962 22.401 3.068 0 5.968-0.537 8.4-1.539 0.048-0.050 0.093-0.096 0.141-0.145v0l308.291-121.38c0.484-0.323 1.038-0.605 1.624-0.821l0.056-0.019c2.865-1.139 5.405-2.823 7.56-4.899v0.145l619.661-610.563c4.199-4.137 6.579-9.608 6.579-15.822s-2.431-11.869-6.579-15.96l-185.928-183.126c-4.212-4.15-9.833-6.579-16.242-6.579zM790.332 89.187c0.165-0.013 0.359-0.020 0.555-0.020 2.248 0 4.28 0.918 5.744 2.398l0.001 0.001 141.966 140.004c1.436 1.458 2.322 3.459 2.322 5.671 0 2.28-0.945 4.341-2.464 5.808l-0.002 0.002-80.082 78.822c-1.451 1.396-3.425 2.254-5.601 2.254s-4.15-0.861-5.603-2.257l0.002 0.002-142.101-139.866c-1.477-1.466-2.393-3.496-2.393-5.739s0.916-4.276 2.393-5.738l0.001-0.001 80.223-78.963c1.301-1.323 3.054-2.196 5.010-2.377l0.030-0.002zM666.285 211.269c0.127-0.007 0.273-0.012 0.424-0.012 2.245 0 4.273 0.915 5.735 2.39l0.001 0.001 142.104 140.004c1.477 1.466 2.393 3.496 2.393 5.739s-0.916 4.276-2.393 5.738l-0.001 0.001-402.654 396.773c-1.434 1.442-3.408 2.344-5.594 2.379h-18.208c-0.013 0-0.028 0-0.041 0-4.463 0-8.077-3.617-8.077-8.077 0-0.015 0-0.030 0-0.043v0.002-30.522c0-12.428-10.023-22.401-22.821-22.401h-31.080c-0.013 0-0.028 0-0.041 0-4.463 0-8.077-3.617-8.077-8.077 0-0.015 0-0.030 0-0.043v0.002-30.522c0-12.428-10.023-22.401-22.821-22.401h-30.942c-0.013 0-0.028 0-0.041 0-4.463 0-8.077-3.617-8.077-8.077 0-0.015 0-0.030 0-0.043v0.002-17.922c0.035-2.26 0.993-4.293 2.516-5.735l0.004-0.004 402.653-396.773c1.301-1.323 3.054-2.196 5.010-2.377l0.030-0.002zM204.27 667.125c3.113 0.036 5.799 1.831 7.118 4.434l0.022 0.045 0.141 0.279c0.085 0.177 0.179 0.408 0.264 0.646l0.019 0.056c3.275 8.431 11.396 14.421 21.282 14.421h31.080c0.013 0 0.028 0 0.041 0 4.463 0 8.077 3.617 8.077 8.077 0 0.014 0 0.029 0 0.041v-0.002 30.522c0 12.428 10.023 22.401 22.821 22.401h30.942c0.013 0 0.028 0 0.041 0 4.463 0 8.077 3.617 8.077 8.077 0 0.015 0 0.030 0 0.043v-0.002 30.522c0 9.557 5.974 17.663 14.841 21 3.123 1.166 5.308 4.121 5.308 7.589 0 2.232-0.904 4.25-2.367 5.713l-6.579 6.579c-0.775 0.774-1.709 1.393-2.744 1.801l-0.055 0.020-236.747 93.243c-0.861 0.34-1.857 0.539-2.901 0.539-4.463 0-8.077-3.617-8.077-8.077 0-1.118 0.227-2.185 0.637-3.152l-0.021 0.052 94.644-233.247c0.402-1.032 0.973-1.915 1.684-2.665l6.575-6.575c1.465-1.471 3.489-2.38 5.729-2.38 0.053 0 0.107 0 0.159 0.001h-0.008z"></path>
</svg>