<svg xmlns="http://www.w3.org/2000/svg" width="16" height="16" fill="currentColor" class="bi bi-forward" viewBox="0 0 16 16"><!--MIT License-->
  <path
     d="m 4.9633225,7.1483225 a 0.144,0.144 0 0 0 0.134,0.202 h 1.003 a 0.5,0.5 0 0 1 0.5,0.5 v 6.3000005 h 2.9 V 7.8503225 a 0.5,0.5 0 0 1 0.5000005,-0.5 h 1.003 c 0.108,0 0.176,-0.11 0.134,-0.202 l -2.9330005,-3.984 a 0.51,0.51 0 0 1 -0.028,-0.042 0.147,0.147 0 0 0 -0.252,0 0.51,0.51 0 0 1 -0.028,0.042 z m 0.134,1.202 a 1.144,1.144 0 0 1 -0.96,-1.767 l 2.94,-3.994 a 1.147,1.147 0 0 1 1.946,0 l 2.9400005,3.994 a 1.144,1.144 0 0 1 -0.96,1.767 h -0.503 v 6.3000005 a 0.5,0.5 0 0 1 -0.5,0.5 H 6.1003225 a 0.5,0.5 0 0 1 -0.5,-0.5 V 8.3503225 Z" />
</svg>