<svg xmlns="http://www.w3.org/2000/svg" width="16" height="16" fill="currentColor" class="bi bi-forward"><!--MIT License--><path d="M.663 8.351c-.886.018-.859-.69.027-.707h2.653v.707zm12.11.057v-.707h2.59c.885 0 .885.707 0 .707zM8.365 12.88v2.503c0 .862-.673.862-.673 0V12.88z" style="fill-rule:evenodd;stroke-width:1.31005192"/><g style="font-style:normal;font-weight:400;font-size:7.4388175px;line-height:125%;font-family:Sans;letter-spacing:0;word-spacing:0;fill:#000;fill-opacity:1;stroke:none;stroke-width:.18597041px;stroke-linecap:butt;stroke-linejoin:miter;stroke-opacity:1"><path d="M7.1 5.872h.872l2.12 4v-4h.627v4.781h-.871l-2.12-4v4h-.627Z" aria-label="N" style="font-style:normal;font-variant:normal;font-weight:400;font-stretch:normal;font-family:Vemana2000;-inkscape-font-specification:Vemana2000;stroke-width:.16394372px" transform="translate(-.935 -.192)"/></g><path d="m7.772.173-1.518 2.6c-.18.307-.023.445.25.445h3.035c.272 0 .407-.138.227-.445L8.248.173c-.126-.216-.35-.216-.476 0" style="stroke-width:.38748702"/></svg>
