<!--Generator: Adobe Illustrator 23.0.2, SVG Export Plug-In . SVG Version: 6.00 Build 0)--><svg xmlns="http://www.w3.org/2000/svg" xml:space="preserve" viewBox="0 0 80 80"><defs><clipPath id="a"><path d="m29.4 59.85-10.12-.39 7.17 6.16z" style="fill:none"/></clipPath><clipPath id="c"><path d="m41.2 60.66-9.22-6.6-2.58 5.79 6.48 3.04z" style="fill:none"/></clipPath><clipPath id="e"><path d="m44.03 53.58-12.05.48 9.22 6.6z" style="fill:none"/></clipPath><clipPath id="g"><path d="m44.03 53.58-2.83 7.08 8.64-3.21z" style="fill:none"/></clipPath><clipPath id="i"><path d="m54.93 50.45-5.09 7 9.24 4.33z" style="fill:none"/></clipPath><clipPath id="k"><path d="m54.93 50.45-10.9 3.13 5.81 3.87z" style="fill:none"/></clipPath><clipPath id="m"><path d="m54.93 50.45 8.23-4.91-11.87-6.55-15.81-1.73 8.55 16.32z" style="fill:none"/></clipPath><clipPath id="o"><path d="m44.03 53.58-8.55-16.32-5.77 4.49-6.22 4.71z" style="fill:none"/></clipPath><clipPath id="q"><path d="m44.03 53.58-20.54-7.12 8.49 7.6z" style="fill:none"/></clipPath><clipPath id="s"><path d="m31.98 54.06-8.49-7.6 1.39 10.65z" style="fill:none"/></clipPath><clipPath id="u"><path d="m29.4 59.85 2.58-5.79-7.1 3.05-5.6 2.35z" style="fill:none"/></clipPath><clipPath id="w"><path d="M12.19 6.66h246.63v59.28H12.19z" style="fill:none"/></clipPath><linearGradient id="b" x1="0" x2="1" y1="73.7" y2="73.7" gradientTransform="matrix(10.13 0 0 -10.13 19.28 808.81)" gradientUnits="userSpaceOnUse"><stop offset="0" stop-color="#003a62"/><stop offset="1" stop-color="#436b9b"/></linearGradient><linearGradient id="d" x1="0" x2="1" y1="73.81" y2="73.81" gradientTransform="matrix(6.6 0 0 -6.6 31.46 545.86)" gradientUnits="userSpaceOnUse"><stop offset="0" stop-color="#003a62"/><stop offset="1" stop-color="#436b9b"/></linearGradient><linearGradient id="f" x1="0" x2="1" y1="73.78" y2="73.78" gradientTransform="matrix(-7.49 0 0 7.49 42.63 -495.34)" gradientUnits="userSpaceOnUse"><stop offset="0" stop-color="#0e325c"/><stop offset="0" stop-color="#0e325c"/><stop offset="1" stop-color="#436b9b"/></linearGradient><linearGradient id="h" x1="0" x2="1" y1="73.7" y2="73.7" gradientTransform="matrix(8.64 0 0 -8.64 41.2 693.88)" gradientUnits="userSpaceOnUse"><stop offset="0" stop-color="#436b9b"/><stop offset="1" stop-color="#0f325c"/></linearGradient><linearGradient id="j" x1="0" x2="1" y1="73.84" y2="73.84" gradientTransform="matrix(7.57 0 0 -7.57 49.71 614.86)" gradientUnits="userSpaceOnUse"><stop offset="0" stop-color="#7291be"/><stop offset="1" stop-color="#173252"/></linearGradient><linearGradient id="l" x1="0" x2="1" y1="73.7" y2="73.7" gradientTransform="matrix(10.9 0 0 -10.9 44.03 857)" gradientUnits="userSpaceOnUse"><stop offset="0" stop-color="#7291be"/><stop offset="1" stop-color="#173252"/></linearGradient><linearGradient id="n" x1="0" x2="1" y1="73.63" y2="73.63" gradientTransform="matrix(16.03 0 0 -16.03 40.01 1225.78)" gradientUnits="userSpaceOnUse"><stop offset="0" stop-color="#7198c3"/><stop offset="1" stop-color="#008fcf"/></linearGradient><linearGradient id="p" x1="0" x2="1" y1="73.65" y2="73.65" gradientTransform="matrix(0 -17.75 -17.75 0 1340.68 55.54)" gradientUnits="userSpaceOnUse"><stop offset="0" stop-color="#748bb9"/><stop offset="1" stop-color="#008ecf"/></linearGradient><linearGradient id="r" x1="0" x2="1" y1="73.7" y2="73.7" gradientTransform="matrix(7.3 0 0 -7.3 29.9 588.2)" gradientUnits="userSpaceOnUse"><stop offset="0" stop-color="#587ca5"/><stop offset="1" stop-color="#97bddc"/></linearGradient><linearGradient id="t" x1="0" x2="1" y1="73.71" y2="73.71" gradientTransform="matrix(0 -10.69 -10.69 0 815.36 57)" gradientUnits="userSpaceOnUse"><stop offset="0" stop-color="#7291be"/><stop offset="1" stop-color="#465b8b"/></linearGradient><linearGradient id="v" x1="0" x2="1" y1="73.7" y2="73.7" gradientTransform="matrix(12.7 0 0 -12.7 19.28 992.73)" gradientUnits="userSpaceOnUse"><stop offset="0" stop-color="#7291be"/><stop offset="1" stop-color="#465b8b"/></linearGradient></defs><g clip-path="url(#a)" transform="translate(-11.726 -5.943)scale(1.13189)"><path d="M19.28 59.46h10.13v6.16H19.28z" style="fill:url(#b)"/></g><g clip-path="url(#c)" transform="translate(-11.726 -5.943)scale(1.13189)"><path d="M28.93 51.32h12.74v14.31H28.93z" style="fill:url(#d)" transform="rotate(-67 35.307 58.48)"/></g><g clip-path="url(#e)" transform="translate(-11.726 -5.943)scale(1.13189)"><path d="M33.38 50.53h9.25v13.19h-9.25z" style="fill:url(#f)" transform="rotate(-79 38.005 57.123)"/></g><g clip-path="url(#g)" transform="translate(-11.726 -5.943)scale(1.13189)"><path d="M41.2 53.58h8.64v7.08H41.2z" style="fill:url(#h)"/></g><g clip-path="url(#i)" transform="translate(-11.726 -5.943)scale(1.13189)"><path d="M47.88 49.03h13.16V63.2H47.88z" style="fill:url(#j)" transform="rotate(-25 54.454 56.107)"/></g><g clip-path="url(#k)" transform="translate(-11.726 -5.943)scale(1.13189)"><path d="M44.03 50.45h10.9v7h-10.9z" style="fill:url(#l)"/></g><g clip-path="url(#m)" transform="translate(-11.726 -5.943)scale(1.13189)"><path d="M37.66 29.87h23.32v31.1H37.66z" style="fill:url(#n)" transform="rotate(-74 49.317 45.423)"/></g><path d="m63.16 45.54.53-3.18-12.4-3.37z" style="fill:#4cb4e7" transform="translate(-11.726 -5.943)scale(1.13189)"/><path d="m51.29 38.99 1.69-15.44-.46-.79-9.62-11.47z" style="fill:#35abe2" transform="translate(-11.726 -5.943)scale(1.13189)"/><path d="m51.29 38.99 12.4 3.37 3.96-.03-15.4-12.1z" style="fill:#0578be" transform="translate(-11.726 -5.943)scale(1.13189)"/><path d="m67.65 42.33.08-4.4-10.1-7.34-5.38-.36z" style="fill:#35abe2" transform="translate(-11.726 -5.943)scale(1.13189)"/><path d="m57.63 30.59-4.65-7.04-.73 6.68zM42.9 11.29l9.62 11.47.51-4.22-5.67-6.94z" style="fill:#64b6e7" transform="translate(-11.726 -5.943)scale(1.13189)"/><path d="m40.62 8.44 2.28 2.85-4.33 1.03z" style="fill:#009cdc" transform="translate(-11.726 -5.943)scale(1.13189)"/><path d="M35.48 37.26 25.3 25.4l.44 6.73 3.66 3.37z" style="fill:#009fdd" transform="translate(-11.726 -5.943)scale(1.13189)"/><path d="m29.4 35.49.31 6.26 5.77-4.49z" style="fill:#0087cc" transform="translate(-11.726 -5.943)scale(1.13189)"/><g clip-path="url(#o)" transform="translate(-11.726 -5.943)scale(1.13189)"><path d="M22.02 35.3h23.49v20.24H22.02z" style="fill:url(#p)" transform="rotate(-12 33.75 45.44)"/></g><g clip-path="url(#q)" transform="translate(-11.726 -5.943)scale(1.13189)"><path d="M29.6 39.87h8.31v20.79H29.6z" style="fill:url(#r)" transform="rotate(-88 33.761 50.264)"/></g><path d="m38.94 25.14-3.46 12.12 15.81 1.73-8.39-27.7z" style="fill:#00a5df" transform="translate(-11.726 -5.943)scale(1.13189)"/><g clip-path="url(#s)" transform="translate(-11.726 -5.943)scale(1.13189)"><path d="M23.31 46.32h8.85v10.93h-8.85z" style="fill:url(#t)" transform="rotate(-2 27.75 51.775)"/></g><path d="m38.95 25.14-13.65.26 6.59-11.6z" style="fill:#009fdd" transform="translate(-11.726 -5.943)scale(1.13189)"/><g clip-path="url(#u)" transform="translate(-11.726 -5.943)scale(1.13189)"><path d="M19.28 54.06h12.7v5.79h-12.7z" style="fill:url(#v)"/></g><path d="m35.26 11.34 3.31.98-6.68 1.48z" style="fill:#86c2eb" transform="translate(-11.726 -5.943)scale(1.13189)"/><path d="m25.3 25.4 6.59-11.6-5.81-6.83z" style="fill:#00a5df" transform="translate(-11.726 -5.943)scale(1.13189)"/><path d="m26.08 6.96-7.53 8.85 6.75 9.59z" style="fill:#35abe2" transform="translate(-11.726 -5.943)scale(1.13189)"/><path d="m18.55 15.81-1.39 5.69 8.14 3.9z" style="fill:#4eb2e5" transform="translate(-11.726 -5.943)scale(1.13189)"/><path d="m14.12 24.61-1.7-8.52 6.13-.28-1.39 5.69z" style="fill:#72bdea" transform="translate(-11.726 -5.943)scale(1.13189)"/><path d="m42.9 11.29-3.96 13.85-7.05-11.34 6.68-1.48z" style="fill:#4eb2e5" transform="translate(-11.726 -5.943)scale(1.13189)"/><path d="M35.48 37.26 25.3 25.4l13.65-.26z" style="fill:#35abe2" transform="translate(-11.726 -5.943)scale(1.13189)"/><g clip-path="url(#w)" transform="translate(-11.726 -5.943)scale(1.13189)"><path d="m38.57 12.32 2.05-3.88 2.29 2.84 4.45.31 5.68 6.94-.51 4.23.45.79 4.66 7.04 10.1 7.34-.08 4.41-3.96.03-.53 3.18-8.23 4.91 4.16 11.33-9.24-4.32-8.64 3.21-5.33 2.23-6.47-3.04-2.96 5.77-7.17-6.16 5.6-2.35-1.39-10.64 6.22-4.71-.32-6.25-3.65-3.36-.44-6.73-8.14-3.9-3.05 3.11-1.7-8.52 6.14-.28m20.01-3.53-3.31-.98-3.37 2.45-5.8-6.83-7.53 8.84m13.33-2 7.06 11.34m-20.4-9.33 6.75 9.6 13.64-.26M17.16 21.5l1.39-5.69m6.75 9.59.78-18.44m9.4 30.3-5.77 4.49M25.3 25.4l10.18 11.85m7.42-25.96-4.34 1.03-6.68 1.48-6.58 11.6m27.22-2.64L42.9 11.28m8.39 27.71 1.69-15.44m10.71 18.81-12.4-3.37m11.87 6.55-11.87-6.55-15.81-1.73m-6.08-1.77 6.08 1.76m32.17 5.08-15.4-12.1m5.38.36-5.39-.36M31.98 54.06l-7.09 3.04m-5.61 2.36 10.12.39 2.57-5.79m9.23 6.6 2.83-7.04m5.81 3.83-5.81-3.84m5.81 3.84 5.08-7m-10.89 3.17 10.9-3.17m-10.9 3.17-12.06.45m9.23 6.59-9.23-6.6m.01 0-8.48-7.6m-.01 0 20.54 7.15M42.9 11.29l-7.43 25.97 8.55 16.36M42.9 11.29l8.39 27.7" style="fill:none;stroke:#fff;stroke-width:.39px;stroke-miterlimit:10"/></g></svg>
