<!--MIT License--><svg xmlns="http://www.w3.org/2000/svg" width="16" height="16" fill="currentColor" class="bi bi-square"><path d="M6.485 3.989a.917.917 0 0 0-.914.91v.002c-.009.22-.012.546-.005.801h-.773a.916.916 0 0 0-.914.913v4.381c0 .502.412.914.914.914h4.381a.916.916 0 0 0 .913-.914v-.812c.292.01.626.013.78.013.501 0 .913-.41.913-.913V4.901a.917.917 0 0 0-.913-.912Zm0 .73h4.382a.18.18 0 0 1 .183.182v4.383a.18.18 0 0 1-.183.182l.011.001a8 8 0 0 0-.791.033V6.615a.915.915 0 0 0-.913-.913H6.24c.033-.256.064-.58.064-.8 0-.103.078-.182.181-.182zM4.793 6.434h4.381a.18.18 0 0 1 .184.182v4.381a.18.18 0 0 1-.184.183H4.793a.18.18 0 0 1-.183-.183V6.615a.18.18 0 0 1 .183-.182z" style="color:#000;font-style:normal;font-variant:normal;font-weight:400;font-stretch:normal;font-size:medium;line-height:normal;font-family:sans-serif;font-variant-ligatures:normal;font-variant-position:normal;font-variant-caps:normal;font-variant-numeric:normal;font-variant-alternates:normal;font-feature-settings:normal;text-indent:0;text-align:start;text-decoration:none;text-decoration-line:none;text-decoration-style:solid;text-decoration-color:#000;letter-spacing:normal;word-spacing:normal;text-transform:none;writing-mode:lr-tb;direction:ltr;text-orientation:mixed;dominant-baseline:auto;baseline-shift:baseline;text-anchor:start;white-space:normal;shape-padding:0;clip-rule:nonzero;display:inline;overflow:visible;visibility:visible;opacity:1;isolation:auto;mix-blend-mode:normal;color-interpolation:sRGB;color-interpolation-filters:linearRGB;solid-color:#000;solid-opacity:1;vector-effect:none;fill-opacity:1;fill-rule:nonzero;stroke:none;stroke-width:.36515984;stroke-linecap:butt;stroke-linejoin:miter;stroke-miterlimit:4;stroke-dasharray:none;stroke-dashoffset:0;stroke-opacity:1;color-rendering:auto;image-rendering:auto;shape-rendering:auto;text-rendering:auto"/></svg>
