<svg xmlns="http://www.w3.org/2000/svg" width="48" height="48" fill="rgba(9, 157, 218, 1)" viewBox="0 0 16 16"><path fill="#fff" d="M8 16s6-5.686 6-10A6 6 0 0 0 2 6c0 4.314 6 10 6 10m0-7a3 3 0 1 1 0-6 3 3 0 0 1 0 6"/><path d="M8.028 14.624s5.203-4.931 5.203-8.671c0-6.937-10.406-6.937-10.406 0 0 3.741 5.203 8.671 5.203 8.671" style="fill:#369dc9"/><ellipse cx="8.026" cy="5.976" rx="4.06" ry="3.981" style="opacity:.15500004;fill:#000;stroke-width:1.09297371;paint-order:stroke fill markers"/><path d="M14.778.085A.5.5 0 0 1 15 .5V8a.5.5 0 0 1-.314.464L14.5 8l.186.464-.003.001-.006.003-.023.009a12 12 0 0 1-.397.15c-.264.095-.631.223-1.047.35-.816.252-1.879.523-2.71.523-.847 0-1.548-.28-2.158-.525l-.028-.01C7.68 8.71 7.14 8.5 6.5 8.5c-.7 0-1.638.23-2.437.477A20 20 0 0 0 3 9.342V15.5a.5.5 0 0 1-1 0V.5a.5.5 0 0 1 1 0v.282c.226-.079.496-.17.79-.26C4.606.272 5.67 0 6.5 0c.84 0 1.524.277 2.121.519l.043.018C9.286.788 9.828 1 10.5 1c.7 0 1.638-.23 2.437-.477a20 20 0 0 0 1.349-.476l.019-.007.004-.002h.001" style="fill:#fff" transform="translate(5.228 3.1)scale(.35398)"/></svg>
