<?xml version="1.0" encoding="UTF-8" standalone="no"?>
<svg
   xmlns:dc="http://purl.org/dc/elements/1.1/"
   xmlns:cc="http://creativecommons.org/ns#"
   xmlns:rdf="http://www.w3.org/1999/02/22-rdf-syntax-ns#"
   xmlns:svg="http://www.w3.org/2000/svg"
   xmlns="http://www.w3.org/2000/svg"
   xml:space="preserve"
   viewBox="0 0 330.40976 521.94485"
   width="27.853579"
   height="44.000008"
   y="0px"
   x="0px"
   id="Capa_1"
   version="1.1"><metadata
   id="metadata45"><rdf:RDF><cc:Work
       rdf:about=""><dc:format>image/svg+xml</dc:format><dc:type
         rdf:resource="http://purl.org/dc/dcmitype/StillImage" /><dc:title></dc:title></cc:Work></rdf:RDF></metadata><defs
   id="defs43" />
<g
   id="g8"
   style="stroke:#2c5a92;stroke-width:23.72476196;stroke-miterlimit:4;stroke-dasharray:none;stroke-opacity:1"
   transform="translate(-83.90562,11.862381)">
	<g
   style="fill:#099dda;fill-opacity:1;stroke:#2c5a92;stroke-width:23.72476196;stroke-miterlimit:4;stroke-dasharray:none;stroke-opacity:1"
   id="g6">
		<g
   style="fill:#099dda;fill-opacity:1;stroke:#2c5a92;stroke-width:23.72476196;stroke-miterlimit:4;stroke-dasharray:none;stroke-opacity:1"
   id="g4">
			<path
   id="path2"
   d="m 269.061,484.131 c -3.185,8.461 -11.255,14.049 -20.273,14.089 -9.028,0.029 -17.147,-5.501 -20.39,-13.913 C 184.364,369.986 95.767998,223.102 95.767998,153.343 95.766998,68.801 164.539,0 249.12,0 c 84.541,0 153.333,68.801 153.333,153.343 0.009,69.964 -89.896,215.236 -133.392,330.788 z M 249.12,29.164 c -66.32,0 -120.261,53.941 -120.261,120.232 0,66.33 53.941,120.3 120.261,120.3 66.3,0 120.241,-53.951 120.241,-120.3 C 369.351,83.105 315.42,29.164 249.12,29.164 Z"
   style="fill:#b3b3b3;fill-opacity:1;stroke:#666666;stroke-width:23.72476196;stroke-miterlimit:4;stroke-dasharray:none;stroke-opacity:1" />
		</g>
	</g>
</g>
<g
   id="g10"
   transform="translate(-83.905119,11.862381)">
</g>
<g
   id="g12"
   transform="translate(-83.905119,11.862381)">
</g>
<g
   id="g14"
   transform="translate(-83.905119,11.862381)">
</g>
<g
   id="g16"
   transform="translate(-83.905119,11.862381)">
</g>
<g
   id="g18"
   transform="translate(-83.905119,11.862381)">
</g>
<g
   id="g20"
   transform="translate(-83.905119,11.862381)">
</g>
<g
   id="g22"
   transform="translate(-83.905119,11.862381)">
</g>
<g
   id="g24"
   transform="translate(-83.905119,11.862381)">
</g>
<g
   id="g26"
   transform="translate(-83.905119,11.862381)">
</g>
<g
   id="g28"
   transform="translate(-83.905119,11.862381)">
</g>
<g
   id="g30"
   transform="translate(-83.905119,11.862381)">
</g>
<g
   id="g32"
   transform="translate(-83.905119,11.862381)">
</g>
<g
   id="g34"
   transform="translate(-83.905119,11.862381)">
</g>
<g
   id="g36"
   transform="translate(-83.905119,11.862381)">
</g>
<g
   id="g38"
   transform="translate(-83.905119,11.862381)">
</g>
<circle
   style="opacity:1;fill:#b3b3b3;fill-opacity:1;fill-rule:nonzero;stroke:none;stroke-width:5.93119049;stroke-miterlimit:4;stroke-dasharray:none;stroke-dashoffset:0;stroke-opacity:1"
   id="path835"
   cx="165.20488"
   cy="160.88814"
   r="133.09758" /><circle
   style="opacity:1;fill:#ffffff;fill-opacity:1;fill-rule:nonzero;stroke:#666666;stroke-width:18.3397007;stroke-miterlimit:4;stroke-dasharray:none;stroke-dashoffset:0;stroke-opacity:1"
   id="path1566"
   cx="165.20488"
   cy="161.26172"
   r="73.870895" /></svg>