<svg xmlns="http://www.w3.org/2000/svg" xml:space="preserve" width="27.854" height="44" viewBox="0 0 330.41 521.945"><g style="stroke:#2c5a92;stroke-width:23.72476196;stroke-miterlimit:4;stroke-dasharray:none;stroke-opacity:1"><path d="M269.061 484.131a21.754 21.754 0 0 1-20.273 14.089c-9.028.029-17.147-5.501-20.39-13.913-44.034-114.321-132.63-261.205-132.63-330.964C95.767 68.801 164.539 0 249.12 0c84.541 0 153.333 68.801 153.333 153.343.009 69.964-89.896 215.236-133.392 330.788zM249.12 29.164c-66.32 0-120.261 53.941-120.261 120.232 0 66.33 53.941 120.3 120.261 120.3 66.3 0 120.241-53.951 120.241-120.3-.01-66.291-53.941-120.232-120.241-120.232Z" style="fill:#099dda;fill-opacity:1;stroke:#2c5a92;stroke-width:23.72476196;stroke-miterlimit:4;stroke-dasharray:none;stroke-opacity:1" transform="translate(-83.906 11.862)"/></g><circle cx="165.205" cy="160.888" r="133.098" style="opacity:1;fill:#099dda;fill-opacity:1;fill-rule:nonzero;stroke:none;stroke-width:5.93119049;stroke-miterlimit:4;stroke-dasharray:none;stroke-dashoffset:0;stroke-opacity:1"/><circle cx="165.205" cy="161.262" r="73.871" style="opacity:1;fill:#fff;fill-opacity:1;fill-rule:nonzero;stroke:#2c5a92;stroke-width:18.3397007;stroke-miterlimit:4;stroke-dasharray:none;stroke-dashoffset:0;stroke-opacity:1"/></svg>
