<?xml version="1.0" encoding="UTF-8" standalone="no"?>
<svg
   xmlns:dc="http://purl.org/dc/elements/1.1/"
   xmlns:cc="http://creativecommons.org/ns#"
   xmlns:rdf="http://www.w3.org/1999/02/22-rdf-syntax-ns#"
   xmlns:svg="http://www.w3.org/2000/svg"
   xmlns="http://www.w3.org/2000/svg"
   version="1.1"
   id="Capa_1"
   x="0px"
   y="0px"
   height="30"
   width="30"
   viewBox="0 0 308.6211 308.6211"
   xml:space="preserve"><metadata
   id="metadata45"><rdf:RDF><cc:Work
       rdf:about=""><dc:format>image/svg+xml</dc:format><dc:type
         rdf:resource="http://purl.org/dc/dcmitype/StillImage" /><dc:title></dc:title></cc:Work></rdf:RDF></metadata><defs
   id="defs43" />

<g
   transform="matrix(0.86953335,0,0,0.86953335,-62.298892,-62.298919)"
   id="g10">
</g>
<g
   transform="matrix(0.86953335,0,0,0.86953335,-62.298892,-62.298919)"
   id="g12">
</g>
<g
   transform="matrix(0.86953335,0,0,0.86953335,-62.298892,-62.298919)"
   id="g14">
</g>
<g
   transform="matrix(0.86953335,0,0,0.86953335,-62.298892,-62.298919)"
   id="g16">
</g>
<g
   transform="matrix(0.86953335,0,0,0.86953335,-62.298892,-62.298919)"
   id="g18">
</g>
<g
   transform="matrix(0.86953335,0,0,0.86953335,-62.298892,-62.298919)"
   id="g20">
</g>
<g
   transform="matrix(0.86953335,0,0,0.86953335,-62.298892,-62.298919)"
   id="g22">
</g>
<g
   transform="matrix(0.86953335,0,0,0.86953335,-62.298892,-62.298919)"
   id="g24">
</g>
<g
   transform="matrix(0.86953335,0,0,0.86953335,-62.298892,-62.298919)"
   id="g26">
</g>
<g
   transform="matrix(0.86953335,0,0,0.86953335,-62.298892,-62.298919)"
   id="g28">
</g>
<g
   transform="matrix(0.86953335,0,0,0.86953335,-62.298892,-62.298919)"
   id="g30">
</g>
<g
   transform="matrix(0.86953335,0,0,0.86953335,-62.298892,-62.298919)"
   id="g32">
</g>
<g
   transform="matrix(0.86953335,0,0,0.86953335,-62.298892,-62.298919)"
   id="g34">
</g>
<g
   transform="matrix(0.86953335,0,0,0.86953335,-62.298892,-62.298919)"
   id="g36">
</g>
<g
   transform="matrix(0.86953335,0,0,0.86953335,-62.298892,-62.298919)"
   id="g38">
</g>
<circle
   r="142.32494"
   cy="154.31055"
   cx="154.31055"
   id="path835"
   style="opacity:1;fill:#099dda;fill-opacity:1;fill-rule:nonzero;stroke:#2c5a92;stroke-width:23.97122383;stroke-miterlimit:4;stroke-dasharray:none;stroke-dashoffset:0;stroke-opacity:1" /><circle
   r="92.116417"
   cy="154.31055"
   cx="154.31055"
   id="path1566"
   style="opacity:1;fill:#ffffff;fill-opacity:1;fill-rule:nonzero;stroke:none;stroke-width:22.86945724;stroke-miterlimit:4;stroke-dasharray:none;stroke-dashoffset:0;stroke-opacity:1" /></svg>