<!-- Generated by IcoMoon.io --><!-- MIT License -->
<svg version="1.1" xmlns="http://www.w3.org/2000/svg" width="16" height="16" viewBox="0 0 16 16">
<title>BAO</title>
<path d="M4.343-0.010l-2.038 2.375-1.555 0.021 0.42 2.165 0.778-0.799 2.207 1.093 0.189 1.849 0.967 0.946 0.105 1.576-1.702 1.345 0.378 2.921-1.45 0.715 1.827 1.544 0.758-1.586 1.807 0.862 3.762-1.513 2.451 1.182-1.055-3.024 2.24-1.342 0.021-0.809 1.114-0.021v-1.177l-2.732-2.049-1.345-2.070 0.168-1.198-1.555-1.807h-1.114l-0.62-0.799-0.599 1.009-0.967-0.294-0.819 0.715z"></path>
</svg>