<!-- Generated by IcoMoon.io -->
<svg version="1.1" xmlns="http://www.w3.org/2000/svg" width="1024" height="1024" viewBox="0 0 1024 1024">
<title></title>
<g id="icomoon-ignore">
</g>
<path d="M850 14l10 234h-26c-6-42-14-70-24-88-14-28-34-50-60-64-24-12-58-20-100-20h-140v762c0 62 8 100 20 114 18 22 48 32 86 32h34v26h-422v-26h36c42 0 72-14 90-38 10-16 16-52 16-108v-762h-120c-48 0-80 4-100 10-26 10-48 28-66 54-18 28-28 62-32 108h-28l12-234zM676 550h152v-152h42v152h154v42h-154v152h-42v-152h-152z"></path>
</svg>
