<?xml version="1.0" encoding="utf-8"?>
<!-- Generator: Adobe Illustrator 23.0.2, SVG Export Plug-In . SVG Version: 6.00 Build 0)  -->
<svg version="1.1" id="Ebene_1" xmlns="http://www.w3.org/2000/svg" xmlns:xlink="http://www.w3.org/1999/xlink" x="0px" y="0px"
	 viewBox="0 0 283.46 70.73" style="enable-background:new 0 0 283.46 70.73;" xml:space="preserve">
<style type="text/css">
	.st0{clip-path:url(#SVGID_2_);}
	.st1{clip-path:url(#SVGID_6_);}
	.st2{clip-path:url(#SVGID_10_);}
	.st3{clip-path:url(#SVGID_14_);}
	.st4{clip-path:url(#SVGID_18_);}
	.st5{clip-path:url(#SVGID_22_);}
	.st6{clip-path:url(#SVGID_26_);}
	.st7{fill:#4CB4E7;}
	.st8{fill:#35ABE2;}
	.st9{fill:#0578BE;}
	.st10{fill:#64B6E7;}
	.st11{fill:#009CDC;}
	.st12{fill:#009FDD;}
	.st13{fill:#0087CC;}
	.st14{clip-path:url(#SVGID_30_);}
	.st15{clip-path:url(#SVGID_34_);}
	.st16{fill:#00A5DF;}
	.st17{clip-path:url(#SVGID_38_);}
	.st18{clip-path:url(#SVGID_42_);}
	.st19{fill:#86C2EB;}
	.st20{fill:#4EB2E5;}
	.st21{fill:#72BDEA;}
	.st22{clip-path:url(#SVGID_46_);fill:none;stroke:#FFFFFF;stroke-width:0.445;stroke-miterlimit:10;}
	.st23{fill:#83929B;}
	.st24{fill:#0095DB;}
</style>
<g>

	<path class="st23" d="M82.6,50.66h10.98c1.23,0,6.93,0,6.93-5.46c0-5.12-4.64-5.12-7.33-5.12H82.6V50.66L82.6,50.66z M82.6,38.72
		h10.85c1.26,0,6.24,0,6.24-4.95c0-4.74-3.89-4.74-6.48-4.74H82.6V38.72L82.6,38.72z M81.04,27.67h13.13c4.67,0,7.1,2.18,7.1,6
		c0,2.39-1.09,4.81-4.78,5.59v0.07c4.74,0.48,5.59,3.92,5.59,6c0,2.63-1.43,6.69-8.15,6.69h-12.9V27.67L81.04,27.67z"/>
	<path class="st23" d="M119,42.27h-0.07c-0.38,0.41-1.3,0.82-2.8,0.92l-5.9,0.41c-2.93,0.2-5.01,1.02-5.01,3.65
		c0,3.55,3.58,3.96,5.7,3.96c3.48,0,8.09-1.57,8.09-5.73V42.27L119,42.27z M104.44,39.95c0.58-4.4,2.83-5.94,8.12-5.94
		c5.08,0,8.02,1.19,8.02,5.12v9.79c0,1.3,0,2.08,1.16,2.08c0.51,0,1.02-0.1,1.54-0.27v1.36c-0.48,0.17-1.13,0.27-1.91,0.27
		c-2.15,0-2.15-1.5-2.15-3.82h-0.07c-1.94,3.58-6.04,4.03-8.32,4.03c-1.5,0-7.16,0-7.16-5.32c0-3.58,3.04-4.81,6.58-5.01l6.11-0.41
		c1.81-0.14,2.66-0.34,2.66-2.49c0-2.35-1.33-3.96-6.48-3.96c-4.61,0-6.04,1.43-6.52,4.57H104.44L104.44,39.95z"/>
	<path class="st23" d="M120.98,34.56h1.77l7.85,15.73l7.2-15.73h1.77l-9.62,20.54c-0.89,1.88-1.77,3.21-4.5,3.21h-2.18v-1.36h1.88
		c2.01,0,2.46-0.44,3.79-3.14l0.89-1.77L120.98,34.56L120.98,34.56z"/>
	<path class="st23" d="M156.63,42.27c-0.65-4.78-3.99-6.89-8.02-6.89c-4.5,0-7.33,2.73-8.02,6.89H156.63L156.63,42.27z M140.6,43.63
		c0.1,4.37,3.07,7.57,8.32,7.57c5.42,0,6.82-3.41,7.44-4.98h1.57c-1.47,4.4-4.54,6.35-9.18,6.35c-5.97,0-9.72-3.62-9.72-9.42
		c0-3.65,2.32-9.14,9.76-9.14c6.07,0,9.55,4.03,9.62,9.62H140.6L140.6,43.63z"/>
	<path class="st23" d="M160.21,34.56h1.57v4.13h0.07c1.16-3.07,3.82-4.67,7.23-4.67c0.48,0,0.82,0.07,1.3,0.2v1.57
		c-0.38-0.14-0.82-0.2-1.81-0.2c-4.54,0-6.79,3.45-6.79,6.99v9.45h-1.57V34.56L160.21,34.56z"/>
	<path class="st23" d="M171.81,34.56h1.57v3.48h0.07c1.09-2.08,3.38-4.03,7.37-4.03c8.02,0,8.02,5.12,8.02,7.23v10.78h-1.57V41.31
		c0-3.55-1.33-5.94-6.48-5.94c-5.15,0-7.4,3.21-7.4,6.45v10.2h-1.57V34.56L171.81,34.56z"/>
	<path class="st24" d="M208.2,42.16l-4.16-10.27l-4.23,10.27H208.2L208.2,42.16z M201.07,27.67h6.07l10.85,24.36h-5.7l-2.56-6.04
		h-11.46l-2.52,6.04h-5.53L201.07,27.67L201.07,27.67z"/>
	<path class="st24" d="M218.4,37.35h-3.75v-3.41h3.75v-5.59h4.71v5.59h4.91v3.41h-4.91v8.26c0,2.08,0.1,3.21,1.71,3.21
		c1.16,0,2.25-0.03,3.38-0.07v3.41c-1.26,0.17-2.18,0.27-3.62,0.27c-5.73,0-6.17-2.05-6.17-5.46V37.35L218.4,37.35z"/>
	<polygon class="st24" points="230.31,27.85 235.01,27.85 235.01,52.62 230.31,52.62 230.31,27.85 	"/>
	<path class="st24" d="M253.33,43.02c-1.36,0.58-2.83,0.75-6.17,1.13c-3.55,0.41-4.4,1.19-4.4,2.73c0,2.39,2.18,2.83,3.79,2.83
		c2.52,0,6.79-0.96,6.79-4.95V43.02L253.33,43.02z M258.04,47.9c0,0.99,0.72,1.02,1.02,1.02c0.44,0,1.16-0.03,1.54-0.1v3.31
		c-0.92,0.17-1.74,0.41-3.34,0.41c-3.07,0-3.41-1.64-3.55-2.32c-0.92,0.89-3.21,2.49-8.49,2.49c-4.71,0-7.37-2.11-7.37-5.66
		c0-4.98,5.12-5.42,8.12-5.7c6.75-0.65,7.47-0.89,7.47-2.29c0-2.08-2.39-2.59-5.12-2.59c-3.1,0-4.78,0.99-4.95,3h-4.6
		c0.68-4.74,4.2-6.21,9.55-6.21c9.45,0,9.72,3.72,9.72,6.07V47.9L258.04,47.9z"/>
	<path class="st24" d="M265.99,46.36c0.14,2.73,3.27,3.14,4.98,3.14c2.35,0,4.91-0.61,4.91-2.32c0-1.4-0.78-1.88-5.87-2.56
		c-5.59-0.75-8.53-1.4-8.53-5.53c0-5.15,6-5.83,9.04-5.83c2.8,0,9.52,0.41,9.79,6.21h-4.91c-0.38-2.69-3.51-3-5.12-3
		c-2.66,0-4.09,1.13-4.09,2.08c0,1.47,0.44,1.71,4.98,2.35c5.94,0.85,9.83,1.43,9.83,5.63c0,4.61-4.4,6.17-10,6.17
		c-3.85,0-9.96-0.82-10.13-6.35H265.99L265.99,46.36z"/>
</g>
</svg>
