<!--Generator: Adobe Illustrator 23.0.2, SVG Export Plug-In . SVG Version: 6.00 Build 0)--><svg xmlns="http://www.w3.org/2000/svg" xml:space="preserve" id="Ebene_1" x="0" y="0" version="1.1" viewBox="0 0 283.46 70.73"><style>.st23{fill:#83929b}</style><path d="M82.6 50.66h10.98c1.23 0 6.93 0 6.93-5.46 0-5.12-4.64-5.12-7.33-5.12H82.6zm0-11.94h10.85c1.26 0 6.24 0 6.24-4.95 0-4.74-3.89-4.74-6.48-4.74H82.6zm-1.56-11.05h13.13c4.67 0 7.1 2.18 7.1 6 0 2.39-1.09 4.81-4.78 5.59v.07c4.74.48 5.59 3.92 5.59 6 0 2.63-1.43 6.69-8.15 6.69h-12.9V27.67zM119 42.27h-.07c-.38.41-1.3.82-2.8.92l-5.9.41c-2.93.2-5.01 1.02-5.01 3.65 0 3.55 3.58 3.96 5.7 3.96 3.48 0 8.09-1.57 8.09-5.73v-3.21zm-14.56-2.32c.58-4.4 2.83-5.94 8.12-5.94 5.08 0 8.02 1.19 8.02 5.12v9.79c0 1.3 0 2.08 1.16 2.08.51 0 1.02-.1 1.54-.27v1.36c-.48.17-1.13.27-1.91.27-2.15 0-2.15-1.5-2.15-3.82h-.07c-1.94 3.58-6.04 4.03-8.32 4.03-1.5 0-7.16 0-7.16-5.32 0-3.58 3.04-4.81 6.58-5.01l6.11-.41c1.81-.14 2.66-.34 2.66-2.49 0-2.35-1.33-3.96-6.48-3.96-4.61 0-6.04 1.43-6.52 4.57z" class="st23"/><path d="M120.98 34.56h1.77l7.85 15.73 7.2-15.73h1.77l-9.62 20.54c-.89 1.88-1.77 3.21-4.5 3.21h-2.18v-1.36h1.88c2.01 0 2.46-.44 3.79-3.14l.89-1.77zm35.65 7.71c-.65-4.78-3.99-6.89-8.02-6.89-4.5 0-7.33 2.73-8.02 6.89zm-16.03 1.36c.1 4.37 3.07 7.57 8.32 7.57 5.42 0 6.82-3.41 7.44-4.98h1.57c-1.47 4.4-4.54 6.35-9.18 6.35-5.97 0-9.72-3.62-9.72-9.42 0-3.65 2.32-9.14 9.76-9.14 6.07 0 9.55 4.03 9.62 9.62zm19.61-9.07h1.57v4.13h.07c1.16-3.07 3.82-4.67 7.23-4.67.48 0 .82.07 1.3.2v1.57c-.38-.14-.82-.2-1.81-.2-4.54 0-6.79 3.45-6.79 6.99v9.45h-1.57zm11.6 0h1.57v3.48h.07c1.09-2.08 3.38-4.03 7.37-4.03 8.02 0 8.02 5.12 8.02 7.23v10.78h-1.57V41.31c0-3.55-1.33-5.94-6.48-5.94s-7.4 3.21-7.4 6.45v10.2h-1.57V34.56z" class="st23"/><path d="m208.2 42.16-4.16-10.27-4.23 10.27zm-7.13-14.49h6.07l10.85 24.36h-5.7l-2.56-6.04h-11.46l-2.52 6.04h-5.53zm17.33 9.68h-3.75v-3.41h3.75v-5.59h4.71v5.59h4.91v3.41h-4.91v8.26c0 2.08.1 3.21 1.71 3.21 1.16 0 2.25-.03 3.38-.07v3.41c-1.26.17-2.18.27-3.62.27-5.73 0-6.17-2.05-6.17-5.46v-9.62zm11.91-9.5h4.7v24.77h-4.7zm23.02 15.17c-1.36.58-2.83.75-6.17 1.13-3.55.41-4.4 1.19-4.4 2.73 0 2.39 2.18 2.83 3.79 2.83 2.52 0 6.79-.96 6.79-4.95v-1.74zm4.71 4.88c0 .99.72 1.02 1.02 1.02.44 0 1.16-.03 1.54-.1v3.31c-.92.17-1.74.41-3.34.41-3.07 0-3.41-1.64-3.55-2.32-.92.89-3.21 2.49-8.49 2.49-4.71 0-7.37-2.11-7.37-5.66 0-4.98 5.12-5.42 8.12-5.7 6.75-.65 7.47-.89 7.47-2.29 0-2.08-2.39-2.59-5.12-2.59-3.1 0-4.78.99-4.95 3h-4.6c.68-4.74 4.2-6.21 9.55-6.21 9.45 0 9.72 3.72 9.72 6.07zm7.95-1.54c.14 2.73 3.27 3.14 4.98 3.14 2.35 0 4.91-.61 4.91-2.32 0-1.4-.78-1.88-5.87-2.56-5.59-.75-8.53-1.4-8.53-5.53 0-5.15 6-5.83 9.04-5.83 2.8 0 9.52.41 9.79 6.21h-4.91c-.38-2.69-3.51-3-5.12-3-2.66 0-4.09 1.13-4.09 2.08 0 1.47.44 1.71 4.98 2.35 5.94.85 9.83 1.43 9.83 5.63 0 4.61-4.4 6.17-10 6.17-3.85 0-9.96-.82-10.13-6.35h5.12z" style="fill:#0095db"/></svg>
