<svg version="1.1" xmlns="http://www.w3.org/2000/svg" width="1024" height="1024" viewBox="0 0 1024 1024"><!-- MIT License -->
<title></title>
<g id="icomoon-ignore">
</g>
<path fill="#0095db" d="M578.576 443.334c22.762 22.8 65.74 16.606 96.064-13.756s36.48-73.416 13.756-96.178c-22.762-22.8-65.74-16.644-96.064 13.718-30.324 30.4-36.48 73.454-13.756 96.216z"></path>
<path fill="#0095db" d="M808.83 333.856c-13.794 58.292-50.692 137.788-138.32 236.29l-9.12 91.504c-2.603 22.817-12.735 42.872-27.819 57.991l0.003-0.003-90.516 90.668c-3.515 3.553-8.384 5.758-13.776 5.758-10.698 0-19.38-8.684-19.38-19.38 0-1.007 0.078-1.996 0.225-2.977l-0.019 0.104 10.26-72.162c1.52-10.64-0.494-22.534-4.978-36.328-3.659-10.926-6.86-19.177-10.356-27.294l0.893 2.328-3.116-7.676c-30.97-7.486-59.964-25.156-83.258-48.526-23.332-23.37-41.002-52.402-48.45-83.41l-7.714-3.154c-5.72-2.566-13.966-5.758-22.335-8.653l-2.555-0.771c-13.794-4.522-25.65-6.536-36.29-5.016l-72.048 10.26c-0.855 0.133-1.825 0.209-2.824 0.209-10.698 0-19.38-8.684-19.38-19.38 0-5.379 2.192-10.257 5.747-13.776l0.003-0.003 90.516-90.668c15.58-15.58 35.986-25.46 57.912-27.892h0.228l91.2-9.044c96.634-85.956 175.75-122.74 234.124-136.952 33.82-8.246 60.42-8.816 79.040-7.144 9.272 0.874 16.53 2.28 21.66 3.534 2.546 0.646 4.56 1.254 6.080 1.71 6.992 2.28 10.602 4.94 13.338 11.21l1.102 2.774c2.742 7.924 4.846 17.204 5.91 26.806l0.057 0.592c2.090 18.43 1.938 44.764-6.042 78.47zM625.354 617.906l1.52-1.52-4.066 41.078c-1.585 13.66-7.679 25.65-16.72 34.694v0l-49.324 49.4 2.052-14.44c2.736-19.228-1.292-37.734-6.536-53.884-2.641-8.029-4.746-13.696-7.012-19.285l0.779 2.185c28.044-2.47 55.556-14.44 79.306-38.228zM405.79 398c-23.75 23.788-35.72 51.338-38.152 79.42-3.426-1.495-9.093-3.598-14.831-5.566l-2.269-0.666c-16.112-5.244-34.58-9.272-53.808-6.536l-14.44 2.052 49.4-49.4c9.31-9.348 21.508-15.238 34.58-16.72l41.040-4.066-1.52 1.482zM763.225 247.473c-14.44-1.292-36.746-1.026-66.348 6.194-59.204 14.44-148.846 56.848-263.615 171.798-23.56 23.56-30.362 50.92-26.106 77.938 4.066 25.688 18.354 51.756 39.824 73.264 21.432 21.47 47.5 35.758 73.112 39.862 26.98 4.256 54.302-2.546 77.824-26.144 117.002-117.154 159.296-206.875 173.128-265.515 6.954-29.298 6.84-51.11 5.244-65.094-0.456-4.199-1.054-7.871-1.843-11.458l0.133 0.703c-3.097-0.627-6.998-1.167-10.955-1.529l-0.445-0.029z"></path>
<path fill="#0095db" d="M474.342 669.282c-26.273-14.342-48.828-31.42-68.532-51.355l-0.020-0.021c-21.125-20.921-39.011-45.054-52.867-71.639l-0.751-1.587c-41.876 37.696-74.67 192.053-69.882 196.842 4.75 4.788 149.568-34.048 192.053-72.276z"></path>
</svg>