<!-- Generated by IcoMoon.io -->
<svg version="1.1" xmlns="http://www.w3.org/2000/svg" width="1024" height="1024" viewBox="0 0 1024 1024">
<title></title>
<g id="icomoon-ignore">
</g>
<path fill="#fff" d="M262.203 207.203v584.868c-0.005 0.668-0.196 1.293-0.196 1.967v274.625c0 67.104 100.656 67.104 100.656 0v-76.065c0.007-0.346 0.196-0.634 0.196-0.982v-199.544c1.078-82.458 68.074-149.018 150.788-149.018 626.276-9.546 447.452-104.050 0-100.657-56.872 0-108.646 19.495-150.788 51.311v-386.504c28.872-374.166-247.619 142.587-100.656 0z"></path>
<path fill="#fff" d="M334.84 48.477l132.283 213.385c15.611 25.145 2.924 64.537-20.769 64.537h-264.566c-0.007 0-0.015 0-0.024 0-15.233 0-27.582-17.427-27.582-38.925 0-9.847 2.591-18.84 6.863-25.695l-0.027 0.043 132.283-213.307c5.082-8.177 12.501-13.311 20.769-13.311s15.687 5.134 20.742 13.267l0.027 0.044z"></path>
<path fill="#fff" d="M919.455 611.92l-213.385 132.283c-25.145 15.611-64.537 2.924-64.537-20.769v-264.566c0-0.007 0-0.015 0-0.024 0-15.233 17.427-27.582 38.925-27.582 9.847 0 18.84 2.591 25.695 6.863l-0.043-0.027 213.307 132.283c8.177 5.082 13.311 12.501 13.311 20.769s-5.134 15.687-13.267 20.742l-0.044 0.027z"></path>
</svg>