<?xml version="1.0" encoding="UTF-8" standalone="no"?>
<svg
   
   xmlns:svg="http://www.w3.org/2000/svg"
   xmlns="http://www.w3.org/2000/svg"
   width="1em"
   height="1em"
   viewBox="0 0 20 20"
   class="share"
   version="1.1"   > 
  <path
     d="M 9.9822728,0.14981077 A 9.9075514,9.9075458 0 0 0 0.07413334,10.057944 9.9075514,9.9075458 0 0 0 9.9822728,19.964149 9.9075514,9.9075458 0 0 0 19.890412,10.057944 9.9075514,9.9075458 0 0 0 9.9822728,0.14981077 Z M 13.086515,1.8050202 c 1.528203,0 2.770887,1.2436691 2.770887,2.7708859 0,1.5272167 -1.242684,2.770886 -2.770887,2.770886 -0.888904,0 -1.679937,-0.4230863 -2.187036,-1.0752117 L 6.4117197,8.8748258 c 0.2801872,0.6797497 0.2801872,1.4340152 0,2.1157382 l 4.4877593,2.603246 c 0.5071,-0.65114 1.299118,-1.075213 2.187036,-1.075213 1.528203,0 2.770887,1.242683 2.770887,2.770887 0,1.528204 -1.242684,2.770886 -2.770887,2.770886 -1.527219,0 -2.770888,-1.242682 -2.770888,-2.770886 0,-0.375884 0.07581,-0.732254 0.211959,-1.059797 L 6.0379003,11.62837 c -0.508086,0.651139 -1.2991184,1.075211 -2.1870357,1.075211 -1.5272177,0 -2.7708876,-1.240756 -2.7708876,-2.7689587 0,-1.5282034 1.2436699,-2.7728129 2.7708876,-2.7728129 0.8889039,0 1.6789497,0.4250132 2.1870357,1.0771386 L 10.527586,5.6357025 C 10.391438,5.3081599 10.315627,4.9508042 10.315627,4.5759061 c 0,-1.5282034 1.243669,-2.7708859 2.770888,-2.7708859 z m 0,0.7399306 c -1.12075,0 -2.032885,0.9102071 -2.032885,2.0309553 0,1.1207482 0.913122,2.0309554 2.032885,2.0309554 1.119761,0 2.030956,-0.9092206 2.030956,-2.0309554 0,-1.1217348 -0.910208,-2.0309553 -2.030956,-2.0309553 z M 3.8508646,7.9017401 c -1.1217354,0 -2.0328835,0.910207 -2.0328835,2.0309553 0,1.1207476 0.9121346,2.0328806 2.0328835,2.0328806 1.1197623,0 2.0328834,-0.912133 2.0328834,-2.0328806 0,-1.1207483 -0.9131211,-2.0309553 -2.0328834,-2.0309553 z m 9.2356504,5.3529349 c -1.12075,0 -2.032885,0.911148 -2.032885,2.032883 10e-7,1.121733 0.912135,2.030955 2.032885,2.030955 1.119761,0 2.030956,-0.909222 2.030956,-2.030955 0,-1.121735 -0.910208,-2.032883 -2.030956,-2.032883 z"
      />
</svg>
