<svg xmlns="http://www.w3.org/2000/svg" width="48" height="48" fill="rgba(9, 157, 218, 1)" viewBox="0 0 16 16"><path fill="#fff" d="M8 16s6-5.686 6-10A6 6 0 0 0 2 6c0 4.314 6 10 6 10zm0-7a3 3 0 1 1 0-6 3 3 0 0 1 0 6z"/><path d="M8.028 14.624s5.203-4.931 5.203-8.671c0-6.937-10.406-6.937-10.406 0 0 3.741 5.203 8.671 5.203 8.671z" style="fill:#2c5a93;fill-opacity:1"/><ellipse cx="8.026" cy="5.976" rx="3.455" ry="3.387" style="opacity:.15500004;fill:#000;stroke-width:.93009061;paint-order:stroke fill markers"/><ellipse cx="8.032" cy="5.979" rx="2.294" ry="2.249" style="opacity:1;fill:#fff;stroke-width:.61752313;paint-order:stroke fill markers"/></svg>
