<svg xmlns="http://www.w3.org/2000/svg" width="24" height="24" fill="#1f1f1f" viewBox="0 -960 960 960"><path d="M246.15-198.08h473.54v-103.46H246.15zm0-159.42h473.54v-103.46H246.15zm0-159.42h473.54v-46.85l-75.46-56.61H321.42l-75.27 56.61zm149.16-159.42h175.61l-88-66.39zM190.19-142.12v-380.07l-81.96 62.15-33.65-44.61 115.61-87.81v-113.15h55.96v70.69l236.77-178.96 403 306.5-33.65 44.3-76.62-58.31v379.27zm0-607.34q1.12-41.15 29.35-70.48t73.15-29.33q21.62 0 33.68-12.65 12.05-12.65 13.05-31.19h55.96q-1.3 41.15-29.53 70.48-28.23 29.32-73.16 29.32-21.61 0-33.67 12.66-12.06 12.65-12.87 31.19z"/></svg>
