<?xml version="1.0" encoding="UTF-8" standalone="no"?>
<svg
   xmlns:dc="http://purl.org/dc/elements/1.1/"
   xmlns:cc="http://creativecommons.org/ns#"
   xmlns:rdf="http://www.w3.org/1999/02/22-rdf-syntax-ns#"
   xmlns:svg="http://www.w3.org/2000/svg"
   xmlns="http://www.w3.org/2000/svg"
   id="svg925"
   version="1.1"
   viewBox="0 0 16 16"
   class="bi bi-card-checklist"
   fill="currentColor"
   height="16"
   width="16">
  <metadata
     id="metadata931">
    <rdf:RDF>
      <cc:Work
         rdf:about="">
        <dc:format>image/svg+xml</dc:format>
        <dc:type
           rdf:resource="http://purl.org/dc/dcmitype/StillImage" />
        <dc:title></dc:title>
      </cc:Work>
    </rdf:RDF>
  </metadata>
  <defs
     id="defs929" />
  <path
     id="path921"
     d="M14.5 3a.5.5 0 0 1 .5.5v9a.5.5 0 0 1-.5.5h-13a.5.5 0 0 1-.5-.5v-9a.5.5 0 0 1 .5-.5h13zm-13-1A1.5 1.5 0 0 0 0 3.5v9A1.5 1.5 0 0 0 1.5 14h13a1.5 1.5 0 0 0 1.5-1.5v-9A1.5 1.5 0 0 0 14.5 2h-13z" />
  <path
     id="path923"
     d="M 7,5.5 C 7,5.2238576 7.2238576,5 7.5,5 h 5 c 0.666666,0 0.666666,1 0,1 h -5 C 7.2238576,6 7,5.7761424 7,5.5 Z m 0,4 C 7,9.2238576 7.2238576,9 7.5,9 h 5 c 0.666666,0 0.666666,1 0,1 h -5 C 7.2238576,10 7,9.7761424 7,9.5 Z" />
  <rect
     y="4.1176214"
     x="2.737951"
     height="2.5105195"
     width="2.2868099"
     id="rect1480"
     style="opacity:1;fill:#000000;fill-opacity:1;stroke:none;stroke-width:0.41571242;stroke-linecap:square;stroke-linejoin:round;stroke-miterlimit:4;stroke-dasharray:none;stroke-opacity:1;paint-order:stroke fill markers" />
  <ellipse
     ry="1.1980759"
     rx="1.1641775"
     cy="9.4830513"
     cx="3.8728814"
     id="path1482"
     style="opacity:1;fill:#000000;fill-opacity:1;stroke:none;stroke-width:0.52670962;stroke-linecap:square;stroke-linejoin:round;stroke-miterlimit:4;stroke-dasharray:none;stroke-opacity:1;paint-order:stroke fill markers" />
</svg>