<svg xmlns="http://www.w3.org/2000/svg" width="216" height="213.333"><path d="M93.596 195.965c-11.367-1.708-22.93-5.68-33.476-11.498-10.456-5.769-28.149-23.192-34.427-33.903-16.883-28.802-16.883-66.756 0-95.559 5.693-9.712 23.602-27.622 33.315-33.315 16.91-9.912 39.485-14.695 58.252-12.342 22.916 2.874 39.543 11.143 56.24 27.97 18.603 18.749 26.987 39.086 26.987 65.467 0 16.828-2.383 26.946-10.048 42.666-4.494 9.218-7.778 13.586-17.589 23.397s-14.18 13.095-23.396 17.589c-18.347 8.946-37.733 12.253-55.858 9.528m-6.322-42.61c7.54-5.931 2.798-18.57-6.967-18.57-6.373 0-10.853 4.325-10.853 10.48 0 9.574 10.103 14.16 17.82 8.09m53.76-.136c6.496-6.102 1.926-18.434-6.83-18.434-6.7 0-11.417 4.407-11.417 10.666 0 3.965.803 5.772 3.513 7.904 4.577 3.6 10.82 3.542 14.734-.136m3.086-29.1v-5.334h-31.333c-17.233 0-31.333-.38-31.333-.843s1.249-2.863 2.775-5.333l2.776-4.49h21.904c20.367 0 22.067-.19 24.224-2.71 5.255-6.133 21.761-37.998 21.38-41.27l-.393-3.354-41.472-.352-41.473-.352-2.396-5.315-2.397-5.315H48.12v5.334c0 5.29.042 5.333 5.083 5.333h5.082l9.579 20.196 9.578 20.195-3.994 7.375c-4.747 8.765-5.072 14.248-1.095 18.482 2.885 3.07 3.063 3.085 37.333 3.085h34.434z" style="fill:#000;stroke-width:1.33333337"/></svg>
