<?xml version="1.0" encoding="UTF-8" standalone="no"?>
<svg
   xmlns:dc="http://purl.org/dc/elements/1.1/"
   xmlns:cc="http://creativecommons.org/ns#"
   xmlns:rdf="http://www.w3.org/1999/02/22-rdf-syntax-ns#"
   xmlns:svg="http://www.w3.org/2000/svg"
   xmlns="http://www.w3.org/2000/svg"
   viewBox="0 0 216 213.33333"
   height="213.33333"
   width="216"
   id="svg850"
   version="1.1">
  <metadata
     id="metadata856">
    <rdf:RDF>
      <cc:Work
         rdf:about="">
        <dc:format>image/svg+xml</dc:format>
        <dc:type
           rdf:resource="http://purl.org/dc/dcmitype/StillImage" />
        <dc:title></dc:title>
      </cc:Work>
    </rdf:RDF>
  </metadata>
  <defs
     id="defs854" />
  <path
     id="path860"
     d="m 93.595836,195.96547 c -11.366428,-1.7083 -22.930178,-5.68021 -33.475448,-11.49809 -10.45686,-5.76912 -28.14941,-23.19208 -34.42772,-33.90313 -16.8826801,-28.80255 -16.8826801,-66.75639 0,-95.558942 5.69287,-9.712267 23.60265,-27.62204 33.31491,-33.314909 16.9112,-9.912539 39.485258,-14.6954195 58.252362,-12.3422235 22.91618,2.8734455 39.54307,11.1423445 56.23923,27.9689255 18.60423,18.749548 26.9879,39.086799 26.9879,65.467679 0,16.82838 -2.38279,26.94651 -10.0479,42.66667 -4.49422,9.21712 -7.77856,13.5858 -17.5891,23.39634 -9.81055,9.81055 -14.17923,13.09488 -23.39635,17.58911 -18.34641,8.94565 -37.73272,12.25269 -55.857884,9.52857 z m -6.321928,-42.6108 c 7.539956,-5.93093 2.798328,-18.56989 -6.96667,-18.56989 -6.37366,0 -10.85352,4.32561 -10.85352,10.47981 0,9.57391 10.10293,14.16048 17.82019,8.09008 z m 53.760542,-0.13564 c 6.4957,-6.1024 1.92599,-18.43425 -6.83102,-18.43425 -6.69897,0 -11.41638,4.40761 -11.41638,10.66667 0,3.9645 0.80333,5.77168 3.51315,7.90322 4.57653,3.5999 10.81912,3.54243 14.73425,-0.13564 z m 3.08594,-29.10092 v -5.33333 h -31.33334 c -17.23333,0 -31.333332,-0.37918 -31.333332,-0.84262 0,-0.46344 1.24894,-2.86344 2.77541,-5.33333 l 2.77542,-4.49071 h 21.904302 c 20.36729,0 22.06712,-0.19007 24.22459,-2.70871 5.25431,-6.13388 21.7608,-37.998771 21.37869,-41.270424 l -0.39174,-3.354207 -41.47261,-0.352057 -41.472612,-0.352056 -2.39656,-5.31461 -2.39655,-5.31461 h -9.13084 -9.13083 v 5.333334 c 0,5.289461 0.0418,5.333333 5.08248,5.333333 h 5.08249 l 9.57836,20.195647 9.57836,20.19564 -3.99418,7.37447 c -4.74739,8.76512 -5.07227,14.24813 -1.09509,18.48164 2.88523,3.0712 3.06358,3.08594 37.333332,3.08594 h 34.43425 z"
     style="fill:#000000;stroke-width:1.33333337" />
</svg>
