<?xml version="1.0" encoding="UTF-8" standalone="no"?>
<svg
   xmlns:dc="http://purl.org/dc/elements/1.1/"
   xmlns:cc="http://creativecommons.org/ns#"
   xmlns:rdf="http://www.w3.org/1999/02/22-rdf-syntax-ns#"
   xmlns:svg="http://www.w3.org/2000/svg"
   xmlns="http://www.w3.org/2000/svg"
   id="svg846"
   version="1.1"
   viewBox="0 0 16 16"
   class="bi bi-file-earmark"
   fill="currentColor"
   height="16"
   width="16">
  <metadata
     id="metadata852">
    <rdf:RDF>
      <cc:Work
         rdf:about="">
        <dc:format>image/svg+xml</dc:format>
        <dc:type
           rdf:resource="http://purl.org/dc/dcmitype/StillImage" />
        <dc:title></dc:title>
      </cc:Work>
    </rdf:RDF>
  </metadata>
  <defs
     id="defs850" />
  <path
     id="path844"
     d="M14 4.5V14a2 2 0 0 1-2 2H4a2 2 0 0 1-2-2V2a2 2 0 0 1 2-2h5.5L14 4.5zm-3 0A1.5 1.5 0 0 1 9.5 3V1H4a1 1 0 0 0-1 1v12a1 1 0 0 0 1 1h8a1 1 0 0 0 1-1V4.5h-2z" />
  <text
     id="text856"
     y="10.887801"
     x="5.3974667"
     style="font-style:normal;font-weight:normal;font-size:51.89253235px;line-height:125%;font-family:Sans;letter-spacing:0px;word-spacing:0px;fill:#000000;fill-opacity:1;stroke:none;stroke-width:1.29731333px;stroke-linecap:butt;stroke-linejoin:miter;stroke-opacity:1"
     xml:space="preserve"><tspan
       style="font-style:normal;font-variant:normal;font-weight:bold;font-stretch:normal;font-size:6.91900444px;line-height:113.90000582%;font-family:Sans;-inkscape-font-specification:'Sans Bold';stroke-width:1.29731333px"
       y="10.887801"
       x="5.3974667"
       id="tspan854">S</tspan></text>
  <text
     id="text856-1"
     y="13.394252"
     x="5.4180827"
     style="font-style:normal;font-weight:normal;font-size:51.89253235px;line-height:125%;font-family:Sans;letter-spacing:0px;word-spacing:0px;fill:#000000;fill-opacity:1;stroke:none;stroke-width:1.29731333px;stroke-linecap:butt;stroke-linejoin:miter;stroke-opacity:1"
     xml:space="preserve"><tspan
       style="font-style:normal;font-variant:normal;font-weight:bold;font-stretch:normal;font-size:6.91900444px;line-height:113.90000582%;font-family:Sans;-inkscape-font-specification:'Sans Bold';stroke-width:1.29731333px"
       y="13.394252"
       x="5.4180827"
       id="tspan854-2">S</tspan></text>
</svg>
