<svg xmlns="http://www.w3.org/2000/svg" width="16" height="16" fill="currentColor" class="bi bi-file-earmark"><path d="M14 4.5V14a2 2 0 0 1-2 2H4a2 2 0 0 1-2-2V2a2 2 0 0 1 2-2h5.5zm-3 0A1.5 1.5 0 0 1 9.5 3V1H4a1 1 0 0 0-1 1v12a1 1 0 0 0 1 1h8a1 1 0 0 0 1-1V4.5z"/><text xml:space="preserve" x="5.397" y="10.888" style="font-style:normal;font-weight:400;font-size:51.89253235px;line-height:125%;font-family:Sans;letter-spacing:0;word-spacing:0;fill:#000;fill-opacity:1;stroke:none;stroke-width:1.29731333px;stroke-linecap:butt;stroke-linejoin:miter;stroke-opacity:1"><tspan x="5.397" y="10.888" style="font-style:normal;font-variant:normal;font-weight:700;font-stretch:normal;font-size:6.91900444px;line-height:113.90000582%;font-family:Sans;-inkscape-font-specification:&quot;Sans Bold&quot;;stroke-width:1.29731333px">S</tspan></text><text xml:space="preserve" x="5.418" y="13.394" style="font-style:normal;font-weight:400;font-size:51.89253235px;line-height:125%;font-family:Sans;letter-spacing:0;word-spacing:0;fill:#000;fill-opacity:1;stroke:none;stroke-width:1.29731333px;stroke-linecap:butt;stroke-linejoin:miter;stroke-opacity:1"><tspan x="5.418" y="13.394" style="font-style:normal;font-variant:normal;font-weight:700;font-stretch:normal;font-size:6.91900444px;line-height:113.90000582%;font-family:Sans;-inkscape-font-specification:&quot;Sans Bold&quot;;stroke-width:1.29731333px">S</tspan></text></svg>
