<?xml version="1.0" encoding="UTF-8" standalone="no"?>
<svg
   xmlns:dc="http://purl.org/dc/elements/1.1/"
   xmlns:cc="http://creativecommons.org/ns#"
   xmlns:rdf="http://www.w3.org/1999/02/22-rdf-syntax-ns#"
   xmlns:svg="http://www.w3.org/2000/svg"
   xmlns="http://www.w3.org/2000/svg"
   viewBox="0 0 216 213.33333"
   height="213.33333"
   width="216"
   id="svg850"
   version="1.1">
  <metadata
     id="metadata856">
    <rdf:RDF>
      <cc:Work
         rdf:about="">
        <dc:format>image/svg+xml</dc:format>
        <dc:type
           rdf:resource="http://purl.org/dc/dcmitype/StillImage" />
        <dc:title></dc:title>
      </cc:Work>
    </rdf:RDF>
  </metadata>
  <defs
     id="defs854" />
  <g
     transform="matrix(3.7795275,0,0,3.7795275,-147.03929,-504.23267)"
     id="layer1">
    <path
       id="path860-7"
       transform="scale(0.26458333)"
       d="m 253.89062,514.17383 c -16.1377,0.20498 -33.61512,4.87182 -47.35546,12.92578 -9.71226,5.69284 -27.62354,23.60216 -33.31641,33.31445 -16.88268,28.80253 -16.88268,66.75603 0,95.5586 6.27831,10.71103 23.97087,28.13518 34.42773,33.90429 10.54527,5.81791 22.11014,9.78974 33.47657,11.49805 18.12516,2.72409 37.51101,-0.58365 55.85742,-9.5293 9.21712,-4.4942 13.58593,-7.77733 23.39648,-17.58789 9.81054,-9.81055 13.09563,-14.17939 17.58985,-23.39648 7.66511,-15.72015 10.04687,-25.83959 10.04687,-42.66797 0,-26.38088 -8.38405,-46.71724 -26.98828,-65.4668 -16.69616,-16.82657 -33.3221,-25.09529 -56.23828,-27.96875 -3.51883,-0.44122 -7.1724,-0.63129 -10.89649,-0.58398 z m -18.4082,38.3457 h 39.03516 v 39.03516 h 26.02344 L 255,637.09766 209.45898,591.55469 h 26.02344 z m -26.02344,97.58985 h 91.08204 v 13.01171 h -91.08204 z"
       style="fill:#000000;stroke-width:1.33333337" />
    <g
       transform="matrix(1.7213659,0,0,1.7213659,45.489434,141.0234)"
       id="g836"
       style="fill:#000000">
      <path
         style="fill:none"
         d="M 0,0 H 24 V 24 H 0 Z"
         id="path822" />
    </g>
  </g>
</svg>
