<svg xmlns="http://www.w3.org/2000/svg" width="216" height="213.333" viewBox="0 0 216 213.333"><path d="M253.89 514.174c-16.137.205-33.614 4.872-47.355 12.926-9.712 5.692-27.623 23.602-33.316 33.314-16.883 28.803-16.883 66.756 0 95.559 6.278 10.71 23.97 28.135 34.427 33.904 10.546 5.818 22.11 9.79 33.477 11.498 18.125 2.724 37.511-.584 55.857-9.53 9.218-4.494 13.586-7.777 23.397-17.587s13.096-14.18 17.59-23.397c7.665-15.72 10.047-25.84 10.047-42.668 0-26.38-8.384-46.717-26.989-65.466-16.696-16.827-33.322-25.096-56.238-27.97-3.519-.44-7.172-.63-10.896-.583m-18.408 38.346h39.036v39.035h26.023L255 637.098l-45.541-45.543h26.023zm-26.023 97.59h91.082v13.011H209.46z" style="fill:#000;stroke-width:1.33333337" transform="translate(-147.04 -504.233)"/><g style="fill:#000"><path d="M0 0h24v24H0Z" style="fill:none" transform="translate(24.89 28.77)scale(6.50595)"/></g></svg>
