<svg xmlns="http://www.w3.org/2000/svg" width="16" height="16" fill="currentColor" class="bi bi-rocket-takeoff"><!--MIT License--><path d="M8 0a8 8 0 0 0 0 16A8 8 0 0 0 8 0m.16 2.313c.068 0 .116.018.17.043q.037.017.098.051c.08.045.188.113.314.213.253.201.576.529.893 1.043.549.889 1.073 2.324 1.205 4.621l1.016 1.24c.231.287.371.656.371 1.058v2.236a.34.34 0 0 1-.609.204l-.001-.001-.764-1.018c-.113-.15-.285-.27-.51-.385a7 7 0 0 0-.424-.191l-.133-.057c-.474.29-1.051.43-1.627.43s-1.152-.14-1.627-.43l-.135.057c-.143.06-.279.118-.424.191-.225.115-.397.234-.51.385l-.762 1.018a.34.34 0 0 1-.609-.203v-2.236c0-.402.14-.771.374-1.062l-.003.003.002-.002 1.016-1.238c.134-2.252.656-3.682 1.201-4.578.316-.52.638-.856.889-1.064q.181-.153.395-.273l.013-.007a.4.4 0 0 1 .179-.049zm0 2.71c-.561 0-1.018.606-1.018 1.355s.456 1.355 1.018 1.355c.561 0 1.016-.606 1.016-1.355S8.722 5.023 8.16 5.023m-1.002 7.024c.325.063.664.094 1.002.094s.677-.031 1.002-.094l-.73.975a.338.338 0 0 1-.542.001l-.001-.001z"/></svg>
