<svg xmlns="http://www.w3.org/2000/svg" width="16" height="16" fill="currentColor" class="bi bi-rocket-takeoff" viewBox="0 0 16 16"><!--MIT License-->
<path d="M8 0c-4.418 0-8 3.582-8 8v0c0 4.418 3.582 8 8 8v0c4.418 0 8-3.582 8-8v0c0-4.418-3.582-8-8-8v0zM8.16 2.313c0.068 0 0.116 0.018 0.17 0.043 0.025 0.011 0.057 0.028 0.098 0.051 0.080 0.045 0.188 0.113 0.314 0.213 0.253 0.201 0.576 0.529 0.893 1.043 0.549 0.889 1.073 2.324 1.205 4.621l1.016 1.24c0.231 0.287 0.371 0.656 0.371 1.058 0 0 0 0 0 0v-0 2.236c-0.001 0.187-0.152 0.338-0.339 0.338-0.11 0-0.208-0.053-0.27-0.134l-0.001-0.001-0.764-1.018c-0.113-0.15-0.285-0.27-0.51-0.385-0.145-0.073-0.279-0.13-0.424-0.191l-0.133-0.057c-0.474 0.29-1.051 0.43-1.627 0.43s-1.152-0.14-1.627-0.43c-0.046 0.020-0.091 0.039-0.135 0.057-0.143 0.060-0.279 0.118-0.424 0.191-0.225 0.115-0.397 0.234-0.51 0.385l-0.762 1.018c-0.063 0.082-0.16 0.135-0.27 0.135-0.187 0-0.338-0.151-0.339-0.338v-2.236c0-0 0-0 0-0 0-0.402 0.14-0.771 0.374-1.062l-0.003 0.003 0.002-0.002 1.016-1.238c0.134-2.252 0.656-3.682 1.201-4.578 0.316-0.52 0.638-0.856 0.889-1.064 0.12-0.101 0.253-0.194 0.395-0.273l0.013-0.007c0.052-0.030 0.113-0.048 0.179-0.049h0zM8.16 5.023c-0.561 0-1.018 0.606-1.018 1.355s0.456 1.355 1.018 1.355c0.561 0 1.016-0.606 1.016-1.355s-0.454-1.355-1.016-1.355zM7.158 12.047c0.325 0.063 0.664 0.094 1.002 0.094s0.677-0.031 1.002-0.094l-0.73 0.975c-0.062 0.083-0.161 0.136-0.271 0.136s-0.209-0.053-0.271-0.135l-0.001-0.001-0.73-0.975z"></path>
</svg>