<svg xmlns="http://www.w3.org/2000/svg" width="566.93" height="566.93" fill="#fff"><path d="M317.766 90.578c21.144 0 38.277 16.837 38.277 37.607s-17.134 37.608-38.277 37.608-38.287-16.837-38.287-37.608 17.142-37.607 38.287-37.607zM129.194 223.822c-13.351-9.461-13.265-28.265-3.638-41.385l25.01-29.976c19.237-22.479 51.782-26.096 74.657-7.192l3.81 3.778-57.729 71.2c-11.54 13.111-28.769 14.917-42.11 3.575z"/><path d="M285.067 110.4s-7.254-3.638-10.041-6.251-3.27-4.15-1.16-6.636 17.758-9.435 28.335-11.627c4.921-1.021 8.77-2.44 20.045-1.671 11.493.785 16.27 3.284 21.289 6.43s9.75 8.203 12.05 11.098 4.555 6.661 5.463 9.115.83 2.969-1.038 4.449-8.915 1.956-12.319 2.154-62.624-7.061-62.624-7.061zm136.124 223.559a7.857 7.857 0 0 0-.695-1.595l-43.11-87.32-18.914-2.027 46.694 95.758c1.332 4.212 5.955 6.565 10.361 5.26 4.433-1.313 6.969-5.823 5.664-10.076zm-107.235-30.051 41.981-61.162-18.106-1.941-29.726 42.53a8.867 8.867 0 0 0-.843 1.099l6.694 19.474zm-92.867 3.405-42.348 79.445a7.73 7.73 0 0 0-.745 1.573c-1.437 4.21.956 8.795 5.346 10.241 4.365 1.439 9.059-.774 10.521-4.943l43.004-81.821-15.778-4.495z"/><path d="m213.263 322.072-14.356 26.88c17.731 6.3 30.823 23.229 30.823 42.506 0 24.444-21.047 45.128-45.921 45.128s-45.92-20.684-45.92-45.128 21.047-45.13 45.92-45.13c2.164 0 4.295.166 6.389.468l14.667-27.64a77.193 77.193 0 0 0-21.056-2.914c-42.094 0-76.535 33.847-76.535 75.216s34.441 75.215 76.535 75.215 76.536-33.848 76.536-75.215c0-31.126-19.498-57.989-47.082-69.386zm200.181-62.26a77.3 77.3 0 0 0-17.738 2.057l13.754 28.225a44.92 44.92 0 0 1 3.984-.189c24.875 0 45.922 20.694 45.922 45.143s-21.047 45.128-45.922 45.128-45.922-20.684-45.922-45.128c0-20.041 14.149-37.553 32.952-43.217l-13.496-27.353c-29.153 10.644-50.07 38.324-50.07 70.569 0 41.368 34.441 75.215 76.536 75.215s76.535-33.847 76.535-75.215c.001-41.38-34.44-75.235-76.535-75.235zm-98.129-29.988 71.949 6.353 3.293-30.879-54.26-5.169-64.472-47.499c-11.479-9.401-26.787-7.521-34.441 3.762-19.133 20.684-47.834 54.531-63.142 73.334-17.22 20.684-9.567 52.653 17.221 60.178l41.202 11.687 40.68 11.537 25.597 73.479c1.486 7.075 8.033 12.406 15.889 12.406 8.951 0 16.208-6.921 16.208-15.457 0-1.284-.182-2.524-.492-3.717l.017-.005-.086-.253a15.01 15.01 0 0 0-.571-1.675l-31.283-91.657-63.155-31.029 43.489-52.237 36.357 26.841z"/><ellipse cx="388.335" cy="220.755" rx="16.2" ry="15.457"/></svg>
