<?xml version="1.0" encoding="UTF-8" standalone="no"?>
<svg
   xmlns:dc="http://purl.org/dc/elements/1.1/"
   xmlns:cc="http://creativecommons.org/ns#"
   xmlns:rdf="http://www.w3.org/1999/02/22-rdf-syntax-ns#"
   xmlns:svg="http://www.w3.org/2000/svg"
   xmlns="http://www.w3.org/2000/svg"
   id="svg26"
   xml:space="preserve"
   enable-background="new 0 0 566.93 566.93"
   viewBox="0 0 566.93 566.93"
   height="566.93px"
   width="566.93px"
   y="0px"
   x="0px"
   version="1.1"><metadata
   id="metadata32"><rdf:RDF><cc:Work
       rdf:about=""><dc:format>image/svg+xml</dc:format><dc:type
         rdf:resource="http://purl.org/dc/dcmitype/StillImage" /><dc:title></dc:title></cc:Work></rdf:RDF></metadata><defs
   id="defs30" />

<g
   id="Ebene_2_1_">
	<g
   id="g23">
		<circle
   id="circle11"
   r="38.268"
   cy="125.392"
   cx="290.064"
   fill="#FFFFFF" />
		<polygon
   id="polygon13"
   points="217.356,469.8 255.986,361.428 225.897,335.496 177.175,469.8   "
   fill="#FFFFFF" />
		<g
   id="g19">
			<polygon
   id="polygon15"
   points="389.461,263.3 389.238,469.797 405.137,469.797 405.137,258.686    "
   fill="#FFFFFF" />
			<path
   id="path17"
   d="M389.474,250.721l20.336-6.43c5.54-2.696,9.903-8.427,9.903-14.559c0-8.124-6.498-14.719-14.576-14.907     v-32.032H389.24v34.864c-13.5,2.986-38.755,8.455-42.805,8.509c-4.506,0.061-8.144-4.02-12.32-8.413     c-3.602-3.789-12.452-11.705-16.662-15.739c-3.988-3.822-21.545-15.246-26.578-17.601c-8.821-4.129-41.045-13.238-41.045-13.238     l0.075,0.154l-0.021-0.017L217.356,284.2c-3.827,15.308,1.914,30.614,13.394,40.181l21.047,17.101     c0,0,18.75,15.235,28.701,23.319c9.95,8.084,11.557,18.836,11.557,18.836l1.114,86.16h36.784c0,0,0-53.836,0-70.184     s-1.115-24.895-4.087-37.898c-2.973-13.004-15.21-26.009-15.21-26.009l-34.743-42.198l-0.002,0.001l18.046-63.846     c2.867,2.2,5.018,3.94,5.662,4.676c2.602,2.973,15.605,17.092,27.865,23.78c12.262,6.688,27.867,3.344,27.867,3.344     l34.122-10.744V250.721z"
   fill="#FFFFFF" />
		</g>
		<path
   id="path21"
   d="M173.713,285.596L173.713,285.596c-15.499-5.163-25.831-22.384-20.665-37.882l10.332-34.44    c10.333-30.998,44.773-48.218,75.771-39.607l0,0l-27.553,91.268C206.432,282.153,190.934,290.764,173.713,285.596z"
   fill="#FFFFFF" />
	</g>
</g>
</svg>