<?xml version="1.0" encoding="UTF-8" standalone="no"?>
<svg
   xmlns:dc="http://purl.org/dc/elements/1.1/"
   xmlns:cc="http://creativecommons.org/ns#"
   xmlns:rdf="http://www.w3.org/1999/02/22-rdf-syntax-ns#"
   xmlns:svg="http://www.w3.org/2000/svg"
   xmlns="http://www.w3.org/2000/svg"
   id="svg38"
   xml:space="preserve"
   enable-background="new 0 0 566.93 566.93"
   viewBox="0 0 566.93 566.93"
   height="566.93px"
   width="566.93px"
   y="0px"
   x="0px"
   version="1.1"><metadata
   id="metadata44"><rdf:RDF><cc:Work
       rdf:about=""><dc:format>image/svg+xml</dc:format><dc:type
         rdf:resource="http://purl.org/dc/dcmitype/StillImage" /><dc:title></dc:title></cc:Work></rdf:RDF></metadata><defs
   id="defs42" />

<g
   id="Ebene_2_1_">
	<g
   id="g35">
		<path
   id="path15"
   d="M317.766,90.578c21.144,0,38.277,16.837,38.277,37.607c0,20.771-17.134,37.608-38.277,37.608    c-21.145,0-38.287-16.837-38.287-37.608C279.479,107.415,296.621,90.578,317.766,90.578z"
   fill="#FFFFFF" />
		<path
   id="path17"
   d="M129.194,223.822L129.194,223.822c-13.351-9.461-13.265-28.265-3.638-41.385l25.01-29.976    c19.237-22.479,51.782-26.096,74.657-7.192l3.81,3.778l-57.729,71.2C159.764,233.358,142.535,235.164,129.194,223.822z"
   fill="#FFFFFF" />
		<path
   id="path19"
   d="M285.067,110.4c0,0-7.254-3.638-10.041-6.251c-2.789-2.617-3.27-4.15-1.16-6.636    c2.11-2.487,17.758-9.435,28.335-11.627c4.921-1.021,8.77-2.44,20.045-1.671c11.493,0.785,16.27,3.284,21.289,6.43    c5.021,3.146,9.75,8.203,12.05,11.098c2.299,2.896,4.555,6.661,5.463,9.115c0.908,2.456,0.83,2.969-1.038,4.449    s-8.915,1.956-12.319,2.154C344.286,117.66,285.067,110.4,285.067,110.4z"
   fill="#FFFFFF" />
		<path
   id="path21"
   d="M421.191,333.959c-0.174-0.567-0.411-1.098-0.695-1.595l-43.11-87.32l-18.914-2.027l46.694,95.758    c1.332,4.212,5.955,6.565,10.361,5.26C419.96,342.722,422.496,338.212,421.191,333.959z"
   fill="#FFFFFF" />
		<path
   id="path23"
   d="M313.956,303.908l41.981-61.162l-18.106-1.941l-29.726,42.53c-0.304,0.335-0.584,0.704-0.843,1.099    L313.956,303.908z"
   fill="#FFFFFF" />
		<path
   id="path25"
   d="M221.089,307.313l-42.348,79.445c-0.3,0.486-0.554,1.011-0.745,1.573    c-1.437,4.21,0.956,8.795,5.346,10.241c4.365,1.439,9.059-0.774,10.521-4.943l43.004-81.821L221.089,307.313z"
   fill="#FFFFFF" />
		<path
   id="path27"
   d="M213.263,322.072l-14.356,26.88c17.731,6.3,30.823,23.229,30.823,42.506    c0,24.444-21.047,45.128-45.921,45.128s-45.92-20.684-45.92-45.128c0-24.445,21.047-45.13,45.92-45.13    c2.164,0,4.295,0.166,6.389,0.468l14.667-27.64c-6.696-1.896-13.761-2.914-21.056-2.914c-42.094,0-76.535,33.847-76.535,75.216    c0,41.367,34.441,75.215,76.535,75.215c42.094,0,76.536-33.848,76.536-75.215C260.345,360.332,240.847,333.469,213.263,322.072z"
   fill="#FFFFFF" />
		<path
   id="path29"
   d="M413.444,259.812c-6.101,0-12.04,0.715-17.738,2.057l13.754,28.225c1.315-0.117,2.643-0.189,3.984-0.189    c24.875,0,45.922,20.694,45.922,45.143c0,24.444-21.047,45.128-45.922,45.128c-24.874,0-45.922-20.684-45.922-45.128    c0-20.041,14.149-37.553,32.952-43.217l-13.496-27.353c-29.153,10.644-50.07,38.324-50.07,70.569    c0,41.368,34.441,75.215,76.536,75.215c42.094,0,76.535-33.847,76.535-75.215C489.98,293.667,455.539,259.812,413.444,259.812z"
   fill="#FFFFFF" />
		<path
   id="path31"
   d="M315.315,229.824l71.949,6.353l3.293-30.879l-54.26-5.169l-64.472-47.499    c-11.479-9.401-26.787-7.521-34.441,3.762c-19.133,20.684-47.834,54.531-63.142,73.334c-17.22,20.684-9.567,52.653,17.221,60.178    l41.202,11.687l40.68,11.537l25.597,73.479c1.486,7.075,8.033,12.406,15.889,12.406c8.951,0,16.208-6.921,16.208-15.457    c0-1.284-0.182-2.524-0.492-3.717l0.017-0.005l-0.086-0.253c-0.159-0.571-0.348-1.132-0.571-1.675l-31.283-91.657l-63.155-31.029    l43.489-52.237L315.315,229.824z"
   fill="#FFFFFF" />
		<ellipse
   id="ellipse33"
   ry="15.457"
   rx="16.2"
   cy="220.755"
   cx="388.335"
   fill="#FFFFFF" />
	</g>
</g>
</svg>