<svg xmlns="http://www.w3.org/2000/svg" width="566.93" height="566.93" fill="#fff"><path d="M426.365 257.229c0-9.706-7.881-17.575-17.6-17.575h-.035v-.044h-45.962s-4.828.267-10.63-7.087c-44.291-54.922-51.378-65.552-65.551-65.552h-8.856c-14.173 0-24.803 10.63-76.181 62.009-19.488 19.488-17.717 44.291 1.771 56.688l54 31.765-.276 76.663c-.021.365-.035.732-.035 1.104 0 .336.01.67.027 1.004l-.004 1.08h.094a18.78 18.78 0 0 0 18.666 16.678c9.67 0 17.628-7.297 18.666-16.678h.009v-.064c.071-.664.109-1.338.109-2.02a18.98 18.98 0 0 0-.109-2.02v-80.922c0-12.479-10.08-20.959-11.52-22.719-.783-.957-10.32-10.574-18.859-19.146l38.442-34.325 26.574 28.346c6.082 6.827 14.172 10.629 23.031 10.629h57.373l-.001-.02c9.376-.401 16.857-8.336 16.857-17.794zm-52.459-142.938c-.959-2.267-3.229-5.702-5.494-8.317s-6.886-7.147-11.68-9.868-9.332-4.845-19.992-5.036c-10.459-.188-13.947 1.332-18.446 2.527-9.667 2.567-23.795 9.849-25.626 12.29s-1.312 3.86 1.395 6.188c.947.814 2.405 1.719 3.9 2.553a35.28 35.28 0 0 0-4.289 16.911c0 19.569 15.864 35.433 35.434 35.433s35.433-15.864 35.433-35.433c0-3.664-.557-7.197-1.589-10.522 3.357-.396 8.726-1.163 10.211-2.491 1.655-1.482 1.701-1.968.743-4.235zm23.949 195.057 3.163 19.721c23.259 5.143 40.661 25.871 40.661 50.678 0 28.672-23.243 51.915-51.916 51.915s-51.914-23.243-51.914-51.915c0-23.473 15.586-43.283 36.969-49.701l7.188 46.535c.035 4.154 3.493 7.512 7.757 7.512 4.286 0 7.761-3.391 7.761-7.576 0-.557-.066-1.1-.184-1.623l-14.9-92.885h-15.042l4.508 29.182c-30.401 7.971-53.007 35.745-53.007 68.557 0 38.975 31.89 70.865 70.866 70.865s70.866-31.891 70.866-70.865c0-36.244-27.572-66.352-62.776-70.4zM335.273 277.8l-35.004 27.899c.582 2.035.934 4.227.934 6.559v12.335l52.756-42.553h-3.321a29.73 29.73 0 0 1-15.365-4.24zM216.78 321.078l7.968-15.428-12.854-7.561-41.724 79.643a7.395 7.395 0 0 0-.69 1.481c-1.33 3.968.886 8.288 4.95 9.65 4.042 1.356 8.388-.729 9.742-4.657l23.857-46.189c12.768 9.456 21.051 24.62 21.051 41.729 0 28.672-23.244 51.915-51.916 51.915s-51.915-23.243-51.915-51.915 23.243-51.916 51.915-51.916c2.422 0 4.8.18 7.133.5l9.188-17.537a70.43 70.43 0 0 0-16.321-1.914c-38.977 0-70.866 31.891-70.866 70.867s31.89 70.865 70.866 70.865 70.866-31.891 70.866-70.865c.002-24.332-12.43-45.894-31.25-58.668z"/></svg>
