<?xml version="1.0" encoding="UTF-8" standalone="no"?>
<svg
   xmlns:dc="http://purl.org/dc/elements/1.1/"
   xmlns:cc="http://creativecommons.org/ns#"
   xmlns:rdf="http://www.w3.org/1999/02/22-rdf-syntax-ns#"
   xmlns:svg="http://www.w3.org/2000/svg"
   xmlns="http://www.w3.org/2000/svg"
   id="svg18"
   xml:space="preserve"
   enable-background="new 0 0 566.93 566.93"
   viewBox="0 0 566.93 566.93"
   height="566.93px"
   width="566.93px"
   y="0px"
   x="0px"
   version="1.1"><metadata
   id="metadata24"><rdf:RDF><cc:Work
       rdf:about=""><dc:format>image/svg+xml</dc:format><dc:type
         rdf:resource="http://purl.org/dc/dcmitype/StillImage" /><dc:title></dc:title></cc:Work></rdf:RDF></metadata><defs
   id="defs22" />

<g
   id="Ebene_2">
	<g
   id="g15">
		<path
   id="path5"
   d="M426.365,257.229c0-9.706-7.881-17.575-17.6-17.575c-0.012,0-0.023,0-0.035,0v-0.044h-45.962v0    c0,0-4.828,0.267-10.63-7.087c-44.291-54.922-51.378-65.552-65.551-65.552c-10.627,0-3.294,0-8.856,0    c-14.173,0-24.803,10.63-76.181,62.009c-19.488,19.488-17.717,44.291,1.771,56.688l54,31.765l-0.276,76.663    c-0.021,0.365-0.035,0.732-0.035,1.104c0,0.336,0.01,0.67,0.027,1.004l-0.004,1.08h0.094c1.039,9.381,8.997,16.678,18.666,16.678    c9.67,0,17.628-7.297,18.666-16.678h0.009c0,0,0-0.025,0-0.064c0.071-0.664,0.109-1.338,0.109-2.02    c0-0.684-0.038-1.355-0.109-2.02c0-15.504,0-70.234,0-80.922c0-12.479-10.08-20.959-11.52-22.719    c-0.783-0.957-10.32-10.574-18.859-19.146l38.442-34.325l26.574,28.346c6.082,6.827,14.172,10.629,23.031,10.629h57.373    l-0.001-0.02C418.884,274.622,426.365,266.687,426.365,257.229z"
   fill="#FFFFFF" />
		<path
   id="path7"
   d="M373.906,114.291c-0.959-2.267-3.229-5.702-5.494-8.317c-2.267-2.615-6.886-7.147-11.68-9.868    c-4.795-2.721-9.332-4.845-19.992-5.036c-10.459-0.188-13.947,1.332-18.446,2.527c-9.667,2.567-23.795,9.849-25.626,12.29    c-1.83,2.44-1.312,3.86,1.395,6.188c0.947,0.814,2.405,1.719,3.9,2.553c-2.734,5.025-4.289,10.787-4.289,16.911    c0,19.569,15.864,35.433,35.434,35.433c19.568,0,35.433-15.864,35.433-35.433c0-3.664-0.557-7.197-1.589-10.522    c3.357-0.396,8.726-1.163,10.211-2.491C374.818,117.044,374.864,116.558,373.906,114.291z"
   fill="#FFFFFF" />
		<path
   id="path9"
   d="M397.855,309.348l3.163,19.721c23.259,5.143,40.661,25.871,40.661,50.678    c0,28.672-23.243,51.915-51.916,51.915c-28.672,0-51.914-23.243-51.914-51.915c0-23.473,15.586-43.283,36.969-49.701l7.188,46.535    c0.035,4.154,3.493,7.512,7.757,7.512c4.286,0,7.761-3.391,7.761-7.576c0-0.557-0.066-1.1-0.184-1.623l-14.9-92.885h-15.042    l4.508,29.182c-30.401,7.971-53.007,35.745-53.007,68.557c0,38.975,31.89,70.865,70.866,70.865    c38.976,0,70.866-31.891,70.866-70.865C460.631,343.504,433.059,313.396,397.855,309.348z"
   fill="#FFFFFF" />
		<path
   id="path11"
   d="M335.273,277.8l-35.004,27.899c0.582,2.035,0.934,4.227,0.934,6.559c0,2.32,0,6.717,0,12.335    l52.756-42.553h-3.321C345.117,282.04,339.896,280.562,335.273,277.8z"
   fill="#FFFFFF" />
		<path
   id="path13"
   d="M216.78,321.078l7.968-15.428l-12.854-7.561l-41.724,79.643c-0.278,0.459-0.513,0.953-0.69,1.481    c-1.33,3.968,0.886,8.288,4.95,9.65c4.042,1.356,8.388-0.729,9.742-4.657l23.857-46.189c12.768,9.456,21.051,24.62,21.051,41.729    c0,28.672-23.244,51.915-51.916,51.915c-28.672,0-51.915-23.243-51.915-51.915s23.243-51.916,51.915-51.916    c2.422,0,4.8,0.18,7.133,0.5l9.188-17.537c-5.245-1.248-10.709-1.914-16.321-1.914c-38.977,0-70.866,31.891-70.866,70.867    c0,38.975,31.89,70.865,70.866,70.865s70.866-31.891,70.866-70.865C248.032,355.414,235.6,333.852,216.78,321.078z"
   fill="#FFFFFF" />
	</g>
</g>
</svg>