<svg xmlns="http://www.w3.org/2000/svg" width="566.93" height="566.93" fill="#fff"><circle cx="290.064" cy="125.392" r="38.268"/><path d="m217.356 469.8 38.63-108.372-30.089-25.932L177.175 469.8zm172.105-206.5-.223 206.497h15.899V258.686zm.013-12.579 20.336-6.43c5.54-2.696 9.903-8.427 9.903-14.559 0-8.124-6.498-14.719-14.576-14.907v-32.032H389.24v34.864c-13.5 2.986-38.755 8.455-42.805 8.509-4.506.061-8.144-4.02-12.32-8.413-3.602-3.789-12.452-11.705-16.662-15.739-3.988-3.822-21.545-15.246-26.578-17.601-8.821-4.129-41.045-13.238-41.045-13.238l.075.154-.021-.017L217.356 284.2c-3.827 15.308 1.914 30.614 13.394 40.181l21.047 17.101 28.701 23.319c9.95 8.084 11.557 18.836 11.557 18.836l1.114 86.16h36.784v-70.184c0-16.348-1.115-24.895-4.087-37.898s-15.21-26.009-15.21-26.009l-34.743-42.198-.002.001 18.046-63.846c2.867 2.2 5.018 3.94 5.662 4.676 2.602 2.973 15.605 17.092 27.865 23.78s27.867 3.344 27.867 3.344l34.122-10.744v.002zm-215.761 34.875c-15.499-5.163-25.831-22.384-20.665-37.882l10.332-34.44c10.333-30.998 44.773-48.218 75.771-39.607l-27.553 91.268c-5.166 17.218-20.664 25.829-37.885 20.661z"/></svg>
