<!--MIT License--><svg xmlns="http://www.w3.org/2000/svg" width="16" height="16" fill="currentColor" class="bi bi-arrow-up"><path d="M4.097 3.238v9.138l-.003.03v4.292c0 1.048 1.573 1.048 1.573 0v-1.189l.003-.015v-3.118a2.357 2.357 0 0 1 2.356-2.328c9.785-.15 6.991-1.626 0-1.573a3.89 3.89 0 0 0-2.356.802v-6.04c.45-5.846-3.87 2.228-1.573 0z" style="fill:#fff"/><g style="fill:#fff"><path d="m20.714 52.332-5.482 3.398c-.646.402-1.658.076-1.658-.533V48.4a1 .709 0 0 1 1.66-.534l5.48 3.399a1 .709 0 0 1 0 1.067z" style="stroke-width:.84178197" transform="rotate(-90 -6.62 19.976) scale(.6082)"/></g><g style="fill:#fff"><path d="m20.714 52.332-5.482 3.398c-.646.402-1.658.076-1.658-.533V48.4a1 .709 0 0 1 1.66-.534l5.48 3.399a1 .709 0 0 1 0 1.067z" style="stroke-width:.84178197" transform="translate(1.768 -22.267) scale(.6082)"/></g></svg>
