<?xml version="1.0" encoding="UTF-8" standalone="no"?>
<svg
   xmlns:dc="http://purl.org/dc/elements/1.1/"
   xmlns:cc="http://creativecommons.org/ns#"
   xmlns:rdf="http://www.w3.org/1999/02/22-rdf-syntax-ns#"
   xmlns:svg="http://www.w3.org/2000/svg"
   xmlns="http://www.w3.org/2000/svg"
   id="svg24"
   xml:space="preserve"
   enable-background="new 0 0 566.93 566.93"
   viewBox="0 0 566.93 566.93"
   height="566.93px"
   width="566.93px"
   y="0px"
   x="0px"
   version="1.1"><metadata
   id="metadata30"><rdf:RDF><cc:Work
       rdf:about=""><dc:format>image/svg+xml</dc:format><dc:type
         rdf:resource="http://purl.org/dc/dcmitype/StillImage" /><dc:title></dc:title></cc:Work></rdf:RDF></metadata><defs
   id="defs28" />

<g
   id="Ebene_2">
	<path
   id="path7"
   d="M423.832,231.177l-55.65,0.515c-12.014,1.366-21.533-45.385-42.041-71.06   c-2.312-2.894-4.764-5.521-7.375-7.78c0,0-7.074-5.691-18.396-5.691c-15.307,0-42.451,12.457-109.281,56.238   c-21.048,21.047-19.135,47.834,1.912,61.227l11.074,6.516l22.35,13.144l25.891,15.229v84.627l0.056,0.002   c-0.032,0.451-0.056,0.904-0.056,1.365c0,10.207,8.275,18.482,18.484,18.482c10.207,0,18.482-8.275,18.482-18.482   c0-0.523-0.027-1.039-0.07-1.551c0.039-9.609,0.276-73.924-0.004-88.533c-0.303-15.794-10.329-24.302-10.329-24.302l-19.632-19.085   l52.633-28.468l14.092,29.021c5.739,7.653,12.456,17.622,30.32,17.622l67.541-3.445c9.828,0,17.794-7.964,17.794-17.792   S433.66,231.177,423.832,231.177z"
   fill="#FFFFFF" />
	<path
   id="path9"
   d="M345.687,138.878c0,0-7.801-4.662-10.676-7.321c-2.878-2.662-3.763-6.978-1.587-9.508   c2.178-2.53,18.314-9.6,29.219-11.83c5.074-1.039,9.043-2.484,20.668-1.701c11.852,0.799,16.779,3.342,21.957,6.543   c5.18,3.201,10.059,8.346,12.43,11.292c2.373,2.946,4.699,6.778,5.637,9.275c0.938,2.499,0.856,3.021-1.071,4.526   c-1.927,1.506-9.196,1.991-12.708,2.192S345.687,138.878,345.687,138.878z"
   fill="#FFFFFF" />
	<path
   id="path11"
   d="M200.617,280.017l-43.386,83.742c-0.3,0.494-0.554,1.027-0.745,1.6c-1.437,4.285,0.957,8.951,5.346,10.424   c4.366,1.463,9.059-0.789,10.521-5.031l42.402-82.092L200.617,280.017z"
   fill="#FFFFFF" />
	<circle
   id="circle13"
   r="38.268"
   cy="150.812"
   cx="379.271"
   fill="#FFFFFF" />
	<path
   id="path15"
   d="M192.645,295.646l-6.155,11.941c24.083,8.902,41.254,32.064,41.254,59.24   c0,34.873-28.27,63.141-63.142,63.141s-63.142-28.268-63.142-63.141c0-34.871,28.27-63.141,63.142-63.141   c3.221,0,6.385,0.244,9.476,0.709l6.406-12.43c-5.128-1.094-10.441-1.674-15.882-1.674c-42.095,0-76.535,34.441-76.535,76.535   s34.441,76.535,76.535,76.535s76.536-34.441,76.536-76.535C241.138,334.62,220.973,306.892,192.645,295.646z"
   fill="#FFFFFF" />
	<path
   id="path17"
   d="M394.846,290.313l4.195,13.578c32.682,2.4,58.457,29.656,58.457,62.951   c0,34.871-28.27,63.141-63.143,63.141c-34.872,0-63.141-28.27-63.141-63.141c0-32.064,23.906-58.527,54.863-62.584l-4.004-12.953   c-36.311,5.92-64.254,37.621-64.254,75.537c0,42.094,34.44,76.535,76.535,76.535c42.094,0,76.535-34.441,76.535-76.535   C470.891,324.911,436.717,290.579,394.846,290.313z"
   fill="#FFFFFF" />
	<path
   id="path19"
   d="M404.757,364.372l-26.38-85.827l-16.672,0.851l26.904,89.078c0.659,4.439,4.861,7.514,9.422,6.875   c4.583-0.643,7.791-4.789,7.164-9.266C405.113,365.487,404.961,364.917,404.757,364.372z"
   fill="#FFFFFF" />
	<path
   id="path21"
   d="M320.295,262.318l-0.953-1.963l-23.736,17.715c1.373,3.459,2.402,7.651,2.497,12.546   c0.028,1.537,0.053,3.629,0.071,6.145l31.389-23.829C325.66,269.67,322.877,265.762,320.295,262.318z"
   fill="#FFFFFF" />
</g>
</svg>