<svg xmlns="http://www.w3.org/2000/svg" width="566.93" height="566.93" fill="#fff"><path d="m423.832 231.177-55.65.515c-12.014 1.366-21.533-45.385-42.041-71.06-2.312-2.894-4.764-5.521-7.375-7.78 0 0-7.074-5.691-18.396-5.691-15.307 0-42.451 12.457-109.281 56.238-21.048 21.047-19.135 47.834 1.912 61.227l11.074 6.516 22.35 13.144 25.891 15.229v84.627l.056.002c-.032.451-.056.904-.056 1.365 0 10.207 8.275 18.482 18.484 18.482s18.482-8.275 18.482-18.482a18.5 18.5 0 0 0-.07-1.551l-.004-88.533c-.303-15.794-10.329-24.302-10.329-24.302l-19.632-19.085 52.633-28.468 14.092 29.021c5.739 7.653 12.456 17.622 30.32 17.622l67.541-3.445c9.828 0 17.794-7.964 17.794-17.792s-7.967-17.799-17.795-17.799zm-78.145-92.299s-7.801-4.662-10.676-7.321-3.763-6.978-1.587-9.508 18.314-9.6 29.219-11.83c5.074-1.039 9.043-2.484 20.668-1.701 11.852.799 16.779 3.342 21.957 6.543s10.059 8.346 12.43 11.292 4.699 6.778 5.637 9.275.856 3.021-1.071 4.526-9.196 1.991-12.708 2.192-63.869-3.468-63.869-3.468zm-145.07 141.139-43.386 83.742a7.88 7.88 0 0 0-.745 1.6c-1.437 4.285.957 8.951 5.346 10.424 4.366 1.463 9.059-.789 10.521-5.031l42.402-82.092-14.138-8.643z"/><circle cx="379.271" cy="150.812" r="38.268"/><path d="m192.645 295.646-6.155 11.941c24.083 8.902 41.254 32.064 41.254 59.24 0 34.873-28.27 63.141-63.142 63.141S101.46 401.7 101.46 366.827s28.27-63.141 63.142-63.141c3.221 0 6.385.244 9.476.709l6.406-12.43a76.056 76.056 0 0 0-15.882-1.674c-42.095 0-76.535 34.441-76.535 76.535s34.441 76.535 76.535 76.535 76.536-34.441 76.536-76.535c0-32.206-20.165-59.934-48.493-71.18zm202.201-5.333 4.195 13.578c32.682 2.4 58.457 29.656 58.457 62.951 0 34.871-28.27 63.141-63.143 63.141s-63.141-28.27-63.141-63.141c0-32.064 23.906-58.527 54.863-62.584l-4.004-12.953c-36.311 5.92-64.254 37.621-64.254 75.537 0 42.094 34.44 76.535 76.535 76.535s76.535-34.441 76.535-76.535c.002-41.931-34.172-76.263-76.043-76.529z"/><path d="m404.757 364.372-26.38-85.827-16.672.851 26.904 89.078c.659 4.439 4.861 7.514 9.422 6.875 4.583-.643 7.791-4.789 7.164-9.266a7.97 7.97 0 0 0-.438-1.711zm-84.462-102.054-.953-1.963-23.736 17.715c1.373 3.459 2.402 7.651 2.497 12.546l.071 6.145 31.389-23.829c-3.903-3.262-6.686-7.17-9.268-10.614z"/></svg>
