<?xml version="1.0" encoding="UTF-8" standalone="no"?>
<svg
   xmlns:dc="http://purl.org/dc/elements/1.1/"
   xmlns:cc="http://creativecommons.org/ns#"
   xmlns:rdf="http://www.w3.org/1999/02/22-rdf-syntax-ns#"
   xmlns:svg="http://www.w3.org/2000/svg"
   xmlns="http://www.w3.org/2000/svg"
   version="1.1"
   id="svg3169"
   width="230.39999"
   height="227.2"
   viewBox="0 0 230.39999 227.2">
  <metadata
     id="metadata3175">
    <rdf:RDF>
      <cc:Work
         rdf:about="">
        <dc:format>image/svg+xml</dc:format>
        <dc:type
           rdf:resource="http://purl.org/dc/dcmitype/StillImage" />
        <dc:title></dc:title>
      </cc:Work>
    </rdf:RDF>
  </metadata>
  <defs
     id="defs3173">
    <filter
       id="filter1403"
       style="color-interpolation-filters:sRGB;">
      <feColorMatrix
         id="feColorMatrix1399"
         result="colormatrix"
         values="1 0 0 0 0 0 1 0 0 0 0 0 1 0 0 0 0 0 5 -1 " />
      <feComposite
         id="feComposite1401"
         result="composite"
         k2="0.44"
         operator="arithmetic"
         in2="colormatrix" />
    </filter>
    <filter
       id="filter1409"
       style="color-interpolation-filters:sRGB;">
      <feColorMatrix
         id="feColorMatrix1405"
         result="colormatrix"
         values="1 0 0 0 0 0 1 0 0 0 0 0 1 0 0 0 0 0 5 -1 " />
      <feComposite
         id="feComposite1407"
         result="composite"
         k2="0.44"
         operator="arithmetic"
         in2="colormatrix" />
    </filter>
  </defs>
  <path
     id="path833"
     d="m 167.45973,92.377371 h -0.002 c -4.69503,1.022732 -6.26379,2.528312 -9.82301,5.833567 l 6.73632,7.253902 c 2.20363,-2.04638 5.03921,-3.50822 8.02149,-4.1582 1.75146,-0.38093 3.49997,-0.52323 5.14844,-0.38672 l 0.12109,0.0137 4.16409,0.0485 -8.5726,-9.587813 c -4.15536,0.09645 -4.34327,0.645676 -5.79382,0.983064 z m -16.69411,15.261299 c -0.65513,1.35007 -1.22094,2.72331 -1.71093,4.10352 l -0.002,0.008 c -1.98132,5.61252 -2.80062,11.39023 -3.09179,16.98438 l 9.88672,0.51367 c 0.25893,-4.97473 0.98828,-9.80273 2.54101,-14.20117 0.37897,-1.06659 0.80455,-2.09955 1.28321,-3.08594 z m 5.12696,30.98438 -9.88672,0.52734 c 0.14629,2.7374 0.38843,5.45547 0.69922,8.15039 l 0.0117,0.0977 c 0.5137,3.79357 0.833,7.45167 0.63086,10.93359 l 9.88281,0.57422 c 0.25926,-4.46578 -0.15099,-8.75855 -0.70313,-12.83594 l 0.0117,0.0957 c -0.2908,-2.52168 -0.51253,-5.03639 -0.64648,-7.54297 z m -9.96289,28.36718 c -0.32223,1.11392 -0.70658,2.21293 -1.14649,3.29102 l -0.002,0.01 c -1.70512,4.20067 -4.37162,8.06796 -7.67578,11.29687 l 6.91992,7.08008 c 4.22124,-4.1251 7.67031,-9.093 9.92773,-14.6543 0.5689,-1.39495 1.06637,-2.81967 1.48633,-4.27148 z m -15.78907,20.11524 c -5.07577,3.2687 -10.79344,5.70551 -16.77343,7.55469 l 2.92578,9.45703 c 6.61744,-2.0463 13.17511,-4.80181 19.20898,-8.6875 z m -25.90624,9.89844 c -6.202504,1.29347 -12.389537,2.07877 -18.74939,2.43808 l -8.542041,9.47862 c 6.817194,-0.38515 22.59317,-0.82396 29.312911,-2.2253 z"
     style="color:#000000;font-style:normal;font-variant:normal;font-weight:normal;font-stretch:normal;font-size:medium;line-height:normal;font-family:sans-serif;font-variant-ligatures:normal;font-variant-position:normal;font-variant-caps:normal;font-variant-numeric:normal;font-variant-alternates:normal;font-feature-settings:normal;text-indent:0;text-align:start;text-decoration:none;text-decoration-line:none;text-decoration-style:solid;text-decoration-color:#000000;letter-spacing:normal;word-spacing:normal;text-transform:none;writing-mode:lr-tb;direction:ltr;text-orientation:mixed;dominant-baseline:auto;baseline-shift:baseline;text-anchor:start;white-space:normal;shape-padding:0;clip-rule:nonzero;display:inline;overflow:visible;visibility:visible;opacity:1;isolation:auto;mix-blend-mode:normal;color-interpolation:sRGB;color-interpolation-filters:linearRGB;solid-color:#000000;solid-opacity:1;vector-effect:none;fill:#2e85aa;fill-opacity:1;fill-rule:evenodd;stroke:none;stroke-width:9.89999962;stroke-linecap:butt;stroke-linejoin:miter;stroke-miterlimit:0.40000001;stroke-dasharray:19.8, 9.90000000000000036;stroke-dashoffset:82.16999817;stroke-opacity:1;paint-order:normal;color-rendering:auto;image-rendering:auto;shape-rendering:auto;text-rendering:auto;enable-background:accumulate;filter:url(#filter1409)" />
  <g
     style="filter:url(#filter1403)"
     id="g879"
     transform="matrix(6.669571,0,0,6.669571,134.78565,3.3802242)">
    <path
       id="path956"
       d="M 8,9 C 4.0000017,9 4.0000017,3 8,3 c 3.999998,0 3.999998,6 0,6 z"
       style="fill:#ffffff" />
    <path
       style="fill:#369dc9"
       id="path958"
       d="m 8.028,14.624 c 0,0 5.203,-4.931 5.203,-8.671 0,-6.9373302 -10.4060001,-6.9373302 -10.406,0 0,3.741 5.203,8.671 5.203,8.671 z" />
    <ellipse
       style="opacity:0.15500004;fill:#000000;stroke-width:1.09297371;paint-order:stroke fill markers"
       id="ellipse960"
       ry="3.9806104"
       rx="4.0603976"
       cy="5.9755106"
       cx="8.0262194" />
    <g
       style="fill:#ffffff"
       id="g978"
       transform="matrix(0.50331392,0,0,0.50331392,4.4826411,1.7862146)">
      <path
         id="path967"
         d="M 11.596,8.697 5.233,12.389 C 4.693,12.702 4,12.323 4,11.692 V 4.308 C 4,3.678 4.692,3.298 5.233,3.612 l 6.363,3.692 a 0.802,0.802 0 0 1 0,1.393 z"
         style="fill:#ffffff" />
    </g>
  </g>
  <path
     style="fill:#ffffff;stroke-width:10.52885342"
     d="m 72.727018,150.04204 c -17.446982,0.003 -31.592167,-14.13959 -31.592167,-31.58656 0,-17.44697 14.145185,-31.589667 31.592167,-31.586563 17.444787,0 31.586542,14.141783 31.586542,31.586563 0,17.44477 -14.141755,31.58656 -31.586542,31.58656 z"
     id="path956-5" />
  <path
     d="m 71.064699,208.57557 c 0,0 54.781621,-51.91778 54.781621,-91.29569 0,-73.04213 -109.563244,-73.04213 -109.563243,0 0,39.38844 54.781622,91.29569 54.781622,91.29569 z"
     id="path958-4"
     style="fill:#369dc9;stroke-width:10.52885342" />
  <ellipse
     cx="73.003075"
     cy="118.19763"
     rx="42.751331"
     ry="41.911263"
     id="ellipse960-0"
     style="opacity:0.15500004;fill:#000000;stroke-width:11.50775909;paint-order:stroke fill markers" />
  <g
     transform="matrix(3.7269668,0,0,3.7269668,43.546171,87.92592)"
     id="g933"
     style="fill:#ffffff">
    <path
       style="fill:#ffffff"
       d="M 14.778,0.085 A 0.5,0.5 0 0 1 15,0.5 V 8 A 0.5,0.5 0 0 1 14.686,8.464 L 14.5,8 14.686,8.464 14.683,8.465 14.677,8.468 14.654,8.477 a 12.435,12.435 0 0 1 -0.397,0.15 C 13.993,8.722 13.626,8.85 13.21,8.977 12.394,9.229 11.331,9.5 10.5,9.5 9.653,9.5 8.952,9.22 8.342,8.975 L 8.314,8.965 C 7.68,8.71 7.14,8.5 6.5,8.5 5.8,8.5 4.862,8.73 4.063,8.977 A 19.626,19.626 0 0 0 3,9.342 V 15.5 a 0.5,0.5 0 0 1 -1,0 v -15 a 0.5,0.5 0 0 1 1,0 V 0.782 C 3.226,0.703 3.496,0.612 3.79,0.522 4.606,0.272 5.67,0 6.5,0 7.34,0 8.024,0.277 8.621,0.519 L 8.664,0.537 C 9.286,0.788 9.828,1 10.5,1 11.2,1 12.138,0.77 12.937,0.523 A 19.587,19.587 0 0 0 14.286,0.047 L 14.305,0.04 14.309,0.038 h 0.001"
       id="path922" />
  </g>
</svg>
