<svg version="1.1" xmlns="http://www.w3.org/2000/svg" width="1024" height="1024" viewBox="0 0 1024 1024"><!-- MIT License -->
<path fill="#fff" d="M512 64c17.673 0 32 14.327 32 32v0 832c0 17.673-14.327 32-32 32s-32-14.327-32-32v0-832c0-17.673 14.327-32 32-32v0zM1014.656 489.344c5.808 5.794 9.401 13.805 9.401 22.656s-3.593 16.862-9.401 22.655l-128.001 128.001c-5.798 5.798-13.808 9.384-22.656 9.384-17.695 0-32.040-14.345-32.040-32.040 0-8.848 3.586-16.858 9.384-22.656v0l73.408-73.344h-242.752c-17.673 0-32-14.327-32-32s14.327-32 32-32v0h242.752l-73.408-73.344c-5.798-5.798-9.384-13.808-9.384-22.656 0-17.695 14.345-32.040 32.040-32.040 8.848 0 16.858 3.586 22.656 9.384v0l128 128zM384 512c0 17.673-14.327 32-32 32v0h-242.752l73.408 73.344c5.798 5.798 9.384 13.808 9.384 22.656 0 17.695-14.345 32.040-32.040 32.040-8.848 0-16.858-3.586-22.656-9.384v0l-128-128c-5.808-5.794-9.401-13.805-9.401-22.656s3.593-16.862 9.401-22.655l128.001-128.001c5.798-5.798 13.808-9.384 22.656-9.384 17.695 0 32.040 14.345 32.040 32.040 0 8.848-3.586 16.858-9.384 22.656v0l-73.408 73.344h242.752c17.673 0 32 14.327 32 32v0z"></path>
</svg>