<svg xmlns="http://www.w3.org/2000/svg" width="1024" height="1024"><!--MIT License--><path fill="#fff" d="M512 64c17.673 0 32 14.327 32 32v832c0 17.673-14.327 32-32 32s-32-14.327-32-32V96c0-17.673 14.327-32 32-32zm502.656 425.344c5.808 5.794 9.401 13.805 9.401 22.656s-3.593 16.862-9.401 22.655L886.655 662.656c-5.798 5.798-13.808 9.384-22.656 9.384-17.695 0-32.04-14.345-32.04-32.04 0-8.848 3.586-16.858 9.384-22.656L914.751 544H671.999c-17.673 0-32-14.327-32-32s14.327-32 32-32h242.752l-73.408-73.344c-5.798-5.798-9.384-13.808-9.384-22.656 0-17.695 14.345-32.04 32.04-32.04 8.848 0 16.858 3.586 22.656 9.384l128 128zM384 512c0 17.673-14.327 32-32 32H109.248l73.408 73.344c5.798 5.798 9.384 13.808 9.384 22.656 0 17.695-14.345 32.04-32.04 32.04-8.848 0-16.858-3.586-22.656-9.384l-128-128C3.536 528.862-.057 520.851-.057 512s3.593-16.862 9.401-22.655l128.001-128.001c5.798-5.798 13.808-9.384 22.656-9.384 17.695 0 32.04 14.345 32.04 32.04 0 8.848-3.586 16.858-9.384 22.656L109.249 480h242.752c17.673 0 32 14.327 32 32z"/></svg>
