<svg xmlns="http://www.w3.org/2000/svg" width="48" height="48" viewBox="0 -960 960 960"><path d="M262.308-320h35.384v-10q0-75.615 53.347-128.961Q404.385-512.308 480-512.308t128.961 53.347T662.308-330v10h35.384v-10q0-90.863-63.364-154.278t-154.153-63.414q-90.79 0-154.329 63.414Q262.308-420.863 262.308-330zm32.461-284.615q34.077-7.539 70.346-28.154t60.193-46.693l-27.539-22.615q-20 20.923-50.5 38.231-30.5 17.307-57.423 23.846zm370.462 0L670.154-640q-27.692-7.308-57.808-24.231-30.115-16.923-50.115-37.846l-27.539 22.615q23.923 25.308 60.193 46.308t70.346 28.539M480.134-120q-74.673 0-140.41-28.339-65.737-28.34-114.365-76.922t-76.993-114.257Q120-405.194 120-479.866t28.339-140.41 76.922-114.365 114.257-76.993Q405.194-840 479.866-840t140.41 28.339q65.737 28.34 114.365 76.922t76.993 114.257T840-480.134t-28.339 140.41-76.922 114.365-114.257 76.993Q554.806-120 480.134-120m-.209-30.769q137.835 0 233.57-95.661 95.736-95.661 95.736-233.495 0-137.835-95.661-233.57-95.661-95.736-233.495-95.736-137.835 0-233.57 95.661-95.736 95.661-95.736 233.495 0 137.835 95.661 233.57 95.661 95.736 233.495 95.736"/></svg>
