<svg xmlns="http://www.w3.org/2000/svg" width="48" height="48" viewBox="0 -960 960 960"><path d="M615.052-541.577q16.833 0 29.063-12.398 12.231-12.398 12.231-29.231 0-16.833-12.398-29.063Q631.55-624.5 614.717-624.5q-16.832 0-29.063 12.398-12.231 12.398-12.231 29.231 0 16.833 12.398 29.063 12.399 12.231 29.231 12.231Zm-269.769 0q16.832 0 29.063-12.398 12.231-12.398 12.231-29.231 0-16.833-12.398-29.063-12.398-12.231-29.231-12.231-16.833 0-29.063 12.398-12.231 12.398-12.231 29.231 0 16.833 12.398 29.063 12.398 12.231 29.231 12.231Zm134.896 122.923q-56.68 0-104.218 31.039-47.538 31.038-71.884 82.423h33.308q22-38.808 60.505-61.039 38.505-22.23 82.398-22.23 43.894 0 82.111 22.346 38.216 22.346 61.216 60.923h32.308q-24.615-51.616-71.84-82.539-47.224-30.923-103.904-30.923Zm.068 297.5q-74.461 0-140.137-28.254-65.676-28.255-114.258-76.691-48.582-48.436-76.64-113.855-28.058-65.419-28.058-139.799 0-74.461 28.254-140.137 28.255-65.676 76.691-114.258 48.436-48.582 113.855-76.64 65.419-28.058 139.799-28.058 74.461 0 140.137 28.254t114.258 76.691q48.582 48.436 76.64 113.855 28.058 65.418 28.058 139.799 0 74.461-28.254 140.137t-76.691 114.258q-48.436 48.582-113.855 76.64-65.418 28.058-139.799 28.058ZM480-480Zm-.1 328.654q137.629 0 233.191-95.463 95.563-95.462 95.563-233.091 0-137.629-95.463-233.191-95.462-95.563-233.091-95.563-137.629 0-233.191 95.463-95.563 95.462-95.563 233.091 0 137.629 95.463 233.191 95.462 95.563 233.091 95.563Z"/></svg>
