<svg xmlns="http://www.w3.org/2000/svg" width="48" height="48" viewBox="0 -960 960 960"><path d="M615.052-541.577q16.833 0 29.063-12.398t12.231-29.231-12.398-29.063-29.231-12.231-29.063 12.398-12.231 29.231 12.398 29.063 29.231 12.231m-269.769 0q16.832 0 29.063-12.398t12.231-29.231-12.398-29.063-29.231-12.231-29.063 12.398-12.231 29.231 12.398 29.063 29.231 12.231m134.896 122.923q-56.68 0-104.218 31.039-47.538 31.038-71.884 82.423h33.308q22-38.808 60.505-61.039 38.505-22.23 82.398-22.23 43.894 0 82.111 22.346 38.216 22.346 61.216 60.923h32.308q-24.615-51.616-71.84-82.539-47.224-30.923-103.904-30.923m.068 297.5q-74.461 0-140.137-28.254t-114.258-76.691q-48.582-48.436-76.64-113.855t-28.058-139.799q0-74.461 28.254-140.137t76.691-114.258q48.436-48.582 113.855-76.64t139.799-28.058q74.461 0 140.137 28.254t114.258 76.691 76.64 113.855 28.058 139.799q0 74.461-28.254 140.137t-76.691 114.258-113.855 76.64-139.799 28.058m-.347-30.192q137.629 0 233.191-95.463T808.654-479.9t-95.463-233.191q-95.462-95.563-233.091-95.563t-233.191 95.463q-95.563 95.462-95.563 233.091t95.463 233.191q95.462 95.563 233.091 95.563"/></svg>
