<svg xmlns="http://www.w3.org/2000/svg" width="48" height="48" viewBox="0 -960 960 960"><path d="M615.052-541.577q16.833 0 29.063-12.398t12.231-29.231-12.398-29.063-29.231-12.231-29.063 12.398-12.231 29.231 12.398 29.063 29.231 12.231m-269.769 0q16.832 0 29.063-12.398t12.231-29.231-12.398-29.063-29.231-12.231-29.063 12.398-12.231 29.231 12.398 29.063 29.231 12.231m18.178 189.154h233.308v-29.423H363.461zm116.786 231.269q-74.461 0-140.137-28.254t-114.258-76.691q-48.582-48.436-76.64-113.855t-28.058-139.799q0-74.461 28.254-140.137t76.691-114.258q48.436-48.582 113.855-76.64t139.799-28.058q74.461 0 140.137 28.254t114.258 76.691 76.64 113.855 28.058 139.799q0 74.461-28.254 140.137t-76.691 114.258-113.855 76.64-139.799 28.058m-.347-30.192q137.629 0 233.191-95.463T808.654-479.9t-95.463-233.191q-95.462-95.563-233.091-95.563t-233.191 95.463q-95.563 95.462-95.563 233.091t95.463 233.191q95.462 95.563 233.091 95.563"/></svg>
