<svg xmlns="http://www.w3.org/2000/svg" width="48" height="48" viewBox="0 -960 960 960"><path d="M615.052-541.577q16.833 0 29.063-12.398t12.231-29.231-12.398-29.063-29.231-12.231-29.063 12.398-12.231 29.231 12.398 29.063 29.231 12.231m-269.769 0q16.832 0 29.063-12.398t12.231-29.231-12.398-29.063-29.231-12.231-29.063 12.398-12.231 29.231 12.398 29.063 29.231 12.231M480-285.538q56.923 0 104.115-30.327 47.193-30.327 71.808-81.097h-32.308q-23 38.347-61.489 59.847-38.49 21.5-82.168 21.5T397.832-337t-60.447-59.962h-33.308q24.346 50.77 71.673 81.097T480-285.538m.247 164.384q-74.461 0-140.137-28.254t-114.258-76.691q-48.582-48.436-76.64-113.855t-28.058-139.799q0-74.461 28.254-140.137t76.691-114.258q48.436-48.582 113.855-76.64t139.799-28.058q74.461 0 140.137 28.254t114.258 76.691 76.64 113.855 28.058 139.799q0 74.461-28.254 140.137t-76.691 114.258-113.855 76.64-139.799 28.058m-.347-30.192q137.629 0 233.191-95.463T808.654-479.9t-95.463-233.191q-95.462-95.563-233.091-95.563t-233.191 95.463q-95.563 95.462-95.563 233.091t95.463 233.191q95.462 95.563 233.091 95.563"/></svg>
