<svg xmlns="http://www.w3.org/2000/svg" height="48" viewBox="0 -960 960 960" width="48"><path d="M615.052-541.577q16.833 0 29.063-12.398 12.231-12.398 12.231-29.231 0-16.833-12.398-29.063Q631.55-624.5 614.717-624.5q-16.832 0-29.063 12.398-12.231 12.398-12.231 29.231 0 16.833 12.398 29.063 12.399 12.231 29.231 12.231Zm-269.769 0q16.832 0 29.063-12.398 12.231-12.398 12.231-29.231 0-16.833-12.398-29.063-12.398-12.231-29.231-12.231-16.833 0-29.063 12.398-12.231 12.398-12.231 29.231 0 16.833 12.398 29.063 12.398 12.231 29.231 12.231ZM480-285.538q56.923 0 104.115-30.327 47.193-30.327 71.808-81.097h-32.308q-23 38.347-61.489 59.847-38.49 21.5-82.168 21.5-43.678 0-82.126-21.385-38.447-21.385-60.447-59.962h-33.308q24.346 50.77 71.673 81.097 47.327 30.327 104.25 30.327Zm.247 164.384q-74.461 0-140.137-28.254-65.676-28.255-114.258-76.691-48.582-48.436-76.64-113.855-28.058-65.419-28.058-139.799 0-74.461 28.254-140.137 28.255-65.676 76.691-114.258 48.436-48.582 113.855-76.64 65.419-28.058 139.799-28.058 74.461 0 140.137 28.254t114.258 76.691q48.582 48.436 76.64 113.855 28.058 65.418 28.058 139.799 0 74.461-28.254 140.137t-76.691 114.258q-48.436 48.582-113.855 76.64-65.418 28.058-139.799 28.058ZM480-480Zm-.1 328.654q137.629 0 233.191-95.463 95.563-95.462 95.563-233.091 0-137.629-95.463-233.191-95.462-95.563-233.091-95.563-137.629 0-233.191 95.463-95.563 95.462-95.563 233.091 0 137.629 95.463 233.191 95.462 95.563 233.091 95.563Z"/></svg>