<svg xmlns="http://www.w3.org/2000/svg" width="48" height="48" viewBox="0 -960 960 960"><path d="M332.308-467.692V-400q0 61.385 43.153 104.539Q418.615-252.308 480-252.308t104.539-43.153T627.692-400v-67.692zm147.692 180q-46.615 0-79.461-32.847-32.847-32.846-32.847-79.461v-32.308h224.616V-400q0 46.615-32.847 79.461-32.846 32.847-79.461 32.847m-140-380q-31.077 0-56.346 21.73-25.269 21.731-37.269 59.731l34.154 8.616q8.307-24.462 24.23-39.193t35.231-15.5q19.308.77 35.231 15.5t24.23 39.193l34.154-8.616q-12-38-37.269-59.731-25.269-21.73-56.346-21.73m280 0q-31.077 0-56.346 21.73-25.269 21.731-37.269 59.731l34.154 8.616q8.307-25.231 23.846-39.962T620-632.308t35.615 14.731 23.846 39.962l34.154-8.616q-12-38-37.269-59.731-25.269-21.73-56.346-21.73M480.134-120q-74.673 0-140.41-28.339-65.737-28.34-114.365-76.922t-76.993-114.257Q120-405.194 120-479.866t28.339-140.41 76.922-114.365 114.257-76.993Q405.194-840 479.866-840t140.41 28.339q65.737 28.34 114.365 76.922t76.993 114.257T840-480.134t-28.339 140.41-76.922 114.365-114.257 76.993Q554.806-120 480.134-120m-.209-30.769q137.835 0 233.57-95.661 95.736-95.661 95.736-233.495 0-137.835-95.661-233.57-95.661-95.736-233.495-95.736-137.835 0-233.57 95.661-95.736 95.661-95.736 233.495 0 137.835 95.661 233.57 95.661 95.736 233.495 95.736"/></svg>
