<!-- Generated by IcoMoon.io -->
<svg version="1.1" xmlns="http://www.w3.org/2000/svg" width="16" height="16" viewBox="0 0 16 16">
<path fill="#099ddc" d="M11.354 1.646c-0.091-0.091-0.216-0.147-0.354-0.147s-0.263 0.056-0.354 0.147l-6 6c-0.091 0.091-0.147 0.216-0.147 0.354s0.056 0.263 0.147 0.354l6 6c0.091 0.091 0.216 0.147 0.354 0.147 0.276 0 0.501-0.224 0.501-0.501 0-0.138-0.056-0.263-0.147-0.354v0l-5.647-5.646 5.647-5.646c0.091-0.091 0.147-0.216 0.147-0.354s-0.056-0.263-0.147-0.354l-0-0z"></path>
</svg>